<svg id="Layer_1" data-name="Layer 1" xmlns="http://www.w3.org/2000/svg" xmlns:xlink="http://www.w3.org/1999/xlink" viewBox="0 0 791.15 703.33"><defs><style>.cls-1{fill:url(#linear-gradient);}.cls-2{fill:url(#linear-gradient-2);}.cls-3{fill:url(#linear-gradient-3);}.cls-4{fill:#9500ff;}.cls-5{fill:url(#linear-gradient-4);}.cls-6{fill:#fff;}</style><linearGradient id="linear-gradient" x1="578.95" y1="185.96" x2="501.42" y2="431.46" gradientUnits="userSpaceOnUse"><stop offset="0.08" stop-color="#62dfff"/><stop offset="1" stop-color="#97ecff"/></linearGradient><linearGradient id="linear-gradient-2" x1="158.52" y1="25.25" x2="279.11" y2="361.19" gradientUnits="userSpaceOnUse"><stop offset="0.03" stop-color="#6e17e8"/><stop offset="1" stop-color="#9500ff"/></linearGradient><linearGradient id="linear-gradient-3" x1="298.7" y1="154.23" x2="298.7" y2="352.36" xlink:href="#linear-gradient-2"/><linearGradient id="linear-gradient-4" x1="459.82" y1="-61.25" x2="537.34" y2="283.32" gradientUnits="userSpaceOnUse"><stop offset="0.08" stop-color="#6e17e8"/><stop offset="1" stop-color="#62dfff"/></linearGradient></defs><polygon class="cls-1" points="647.42 268.13 570.37 402.19 493.31 536.25 416.25 402.19 493.31 268.13 570.37 134.06 647.42 268.13"/><polygon class="cls-2" points="298.7 201.1 221.65 67.05 144.58 201.1 221.65 335.16 298.7 201.1"/><polygon class="cls-3" points="375.76 335.16 298.7 201.1 221.65 335.16 298.7 469.22 375.76 335.16"/><polygon class="cls-4" points="412.28 271.63 375.76 335.16 298.71 201.1 335.23 137.57 412.28 271.63"/><polygon class="cls-5" points="647.42 0 570.37 134.06 493.31 268.13 416.25 134.06 444.11 85.61 348.78 85.61 348.89 85.44 299.77 0 647.42 0"/><path class="cls-6" d="M350.67,770.7H374l12.29,58.54,13.27-58.54h17.65l13.26,58.78,12.3-58.78H466l-23.85,90.06H422l-13.75-58.3-13.51,58.3H373.91Z" transform="translate(-350.67 -159.74)"/><path class="cls-6" d="M483.44,834c.85,7.18,7.67,11.93,15.58,11.93,6.45,0,9.85-2.8,12.29-6.33H532a39.59,39.59,0,0,1-13.75,17.28A32.83,32.83,0,0,1,499,863a35.84,35.84,0,0,1-35.78-35.78c0-18.86,14.84-36.27,35.41-36.27a34.57,34.57,0,0,1,25.56,10.71c8.52,9.13,11.07,20,9.49,32.37Zm30.42-15.33c-.48-3.16-4.62-10.71-15.09-10.71s-14.6,7.55-15.09,10.71Z" transform="translate(-350.67 -159.74)"/><path class="cls-6" d="M545.5,770.7h20.21v27.87c7.18-7.67,16.79-7.67,19.59-7.67,14.12,0,33.22,10.1,33.22,35.66,0,24.34-16.91,36.51-34.07,36.51-9.5,0-16.8-4.62-19.6-9.49v7.18H545.5Zm52.82,56.1c0-8.64-6.57-17-16.55-17-10.71,0-16.8,8.64-16.8,17,0,9.38,6.33,17.41,16.43,17.41,10.35,0,16.92-8.4,16.92-17.28Z" transform="translate(-350.67 -159.74)"/><path class="cls-6" d="M629,797c.24-10.84,4.86-17.77,11-22s13.75-6,19.84-6C677.3,769,688,780.92,688,793.58c0,12.41-8.64,17-11.92,18.86C693,818.16,693,831.19,693,834.23c0,15.7-15.21,28.23-33.35,28.23-10.46,0-22.27-4-28.11-12.65-4-5.85-4.62-12.66-5-15.95H649.8c.48,2.07,2.07,8.28,10.34,8.4,6.7,0,9.86-4.38,9.86-10.1,0-8.52-8.76-9.13-12-9.13H649.8V806.11h3.89c2.07,0,11.32,0,11.32-9,0-3.9-1.83-7.91-6.33-7.91-6.69,0-6.94,5.6-7.06,7.79Z" transform="translate(-350.67 -159.74)"/><path class="cls-6" d="M769.43,800.88a24.85,24.85,0,0,0-4.75-6.08,22.4,22.4,0,0,0-15.09-5.6c-11.32,0-24.58,8.4-24.58,26.16,0,18.87,13.38,27,24.7,27a24.26,24.26,0,0,0,14.12-4,18.22,18.22,0,0,0,7.42-10.47H744.36V809.52h53.42c.49,6.45-.24,17-4.13,25.8-8.77,19.84-29,27.26-43.82,27.26-27.26,0-47.83-21.29-47.83-47.22,0-26.89,21.67-46.37,48.2-46.37,21.54,0,40,14.49,45,31.89Z" transform="translate(-350.67 -159.74)"/><path class="cls-6" d="M879.93,860.76H859.72v-7.3c-3.65,6.57-12,9.61-20,9.61-21.42,0-34-16.79-34-36.14,0-22.15,15.94-36,34-36,11.07,0,17.28,5.36,20,9.49v-7.18h20.21ZM826,827.29c0,6.21,4.63,16.92,16.8,16.92,7.18,0,11.56-3.41,14.12-7.55a18.6,18.6,0,0,0,2.79-8.64,17.26,17.26,0,0,0-1.7-8.88c-2.19-4.63-6.81-9.37-15.33-9.37-11.57,0-16.68,9.73-16.68,17.4Z" transform="translate(-350.67 -159.74)"/><path class="cls-6" d="M894.65,793.21h18.86v7.18a15.91,15.91,0,0,1,4.14-4.74c2.92-2.44,7.67-4.75,14.73-4.75a20.62,20.62,0,0,1,15.45,6.45,23,23,0,0,1,4,5.6,27.45,27.45,0,0,1,4.87-5.84,24,24,0,0,1,16.55-6.21c4.75,0,12.29,1.1,17.77,6.82,6.33,6.69,7.3,11.19,7.3,26.16v36.88h-20.2v-35.9c0-2.8,0-6.45-1.34-9.5s-3.77-5.47-9-5.47c-5.6,0-8.4,2.55-9.73,5.6a19.32,19.32,0,0,0-1.46,8.39v36.88H936.39V824a23.25,23.25,0,0,0-1.21-8.39c-1.34-3.17-3.78-5.72-8.89-5.72-5.72,0-8.52,2.67-10,6a22.22,22.22,0,0,0-1.46,9v35.9h-20.2Z" transform="translate(-350.67 -159.74)"/><path class="cls-6" d="M1029.12,834c.86,7.18,7.67,11.93,15.58,11.93,6.45,0,9.86-2.8,12.29-6.33h20.69a39.52,39.52,0,0,1-13.75,17.28A32.8,32.8,0,0,1,1044.7,863a35.84,35.84,0,0,1-35.78-35.78c0-18.86,14.85-36.27,35.42-36.27a34.54,34.54,0,0,1,25.55,10.71c8.52,9.13,11.08,20,9.5,32.37Zm30.43-15.33c-.49-3.16-4.62-10.71-15.09-10.71s-14.61,7.55-15.09,10.71Z" transform="translate(-350.67 -159.74)"/><path class="cls-6" d="M1119.91,812.2c-.12-1.46-.36-5.11-6.33-5.11-4.26,0-5.72,2.68-5.72,4.5,0,3,5,5.11,10.35,6.69,11.44,3.17,23.61,6.58,23.61,21.18,0,14.85-12.54,23.61-27.51,23.61-10.22,0-25.68-4.62-27.5-22.39h20.08c.85,6.21,6.81,6.21,7.67,6.21,3.4,0,7-1.95,7-5.24,0-4.62-5-5.23-17.89-10.22-8.76-2.8-16.06-8.52-16.06-17.65,0-14,12.17-22.88,26.17-22.88,8.88,0,24.22,3.53,25.92,21.3Z" transform="translate(-350.67 -159.74)"/></svg>