<svg id="Layer_1" data-name="Layer 1" xmlns="http://www.w3.org/2000/svg" xmlns:xlink="http://www.w3.org/1999/xlink" viewBox="0 0 791.15 703.33"><defs><style>.cls-1{fill:url(#linear-gradient);}.cls-2{fill:url(#linear-gradient-2);}.cls-3{fill:url(#linear-gradient-3);}.cls-4{fill:#9500ff;}.cls-5{fill:url(#linear-gradient-4);}</style><linearGradient id="linear-gradient" x1="578.52" y1="185.96" x2="501" y2="431.46" gradientUnits="userSpaceOnUse"><stop offset="0.08" stop-color="#62dfff"/><stop offset="1" stop-color="#97ecff"/></linearGradient><linearGradient id="linear-gradient-2" x1="158.09" y1="25.25" x2="278.69" y2="361.19" gradientUnits="userSpaceOnUse"><stop offset="0.03" stop-color="#6e17e8"/><stop offset="1" stop-color="#9500ff"/></linearGradient><linearGradient id="linear-gradient-3" x1="298.28" y1="154.23" x2="298.28" y2="352.36" xlink:href="#linear-gradient-2"/><linearGradient id="linear-gradient-4" x1="459.39" y1="-61.25" x2="536.92" y2="283.32" gradientUnits="userSpaceOnUse"><stop offset="0.08" stop-color="#6e17e8"/><stop offset="1" stop-color="#62dfff"/></linearGradient></defs><polygon class="cls-1" points="646.99 268.13 569.94 402.19 492.88 536.25 415.83 402.19 492.88 268.13 569.94 134.06 646.99 268.13"/><polygon class="cls-2" points="298.28 201.1 221.22 67.05 144.16 201.1 221.22 335.16 298.28 201.1"/><polygon class="cls-3" points="375.34 335.16 298.28 201.1 221.22 335.16 298.28 469.22 375.34 335.16"/><polygon class="cls-4" points="411.86 271.63 375.34 335.16 298.28 201.1 334.8 137.57 411.86 271.63"/><polygon class="cls-5" points="646.99 0 569.94 134.06 492.88 268.13 415.83 134.06 443.68 85.61 348.36 85.61 348.46 85.44 299.35 0 646.99 0"/><path d="M350.88,770.7h23.37l12.29,58.54L399.8,770.7h17.65l13.27,58.78L443,770.7h23.25L442.4,860.76H422.2l-13.75-58.3-13.51,58.3H374.13Z" transform="translate(-350.88 -159.74)"/><path d="M483.65,834c.85,7.18,7.67,11.93,15.58,11.93,6.45,0,9.86-2.8,12.29-6.33h20.69a39.52,39.52,0,0,1-13.75,17.28A32.8,32.8,0,0,1,499.23,863a35.84,35.84,0,0,1-35.78-35.78c0-18.86,14.85-36.27,35.42-36.27a34.56,34.56,0,0,1,25.55,10.71c8.52,9.13,11.08,20,9.5,32.37Zm30.43-15.33c-.49-3.16-4.63-10.71-15.09-10.71s-14.61,7.55-15.09,10.71Z" transform="translate(-350.88 -159.74)"/><path d="M545.72,770.7h20.2v27.87c7.18-7.67,16.79-7.67,19.59-7.67,14.12,0,33.23,10.1,33.23,35.66,0,24.34-16.92,36.51-34.08,36.51-9.49,0-16.79-4.62-19.59-9.49v7.18H545.72Zm52.82,56.1c0-8.64-6.58-17-16.56-17-10.71,0-16.79,8.64-16.79,17,0,9.38,6.33,17.41,16.43,17.41,10.34,0,16.92-8.4,16.92-17.28Z" transform="translate(-350.88 -159.74)"/><path d="M629.2,797c.24-10.84,4.87-17.77,10.95-22s13.76-6,19.84-6c17.53,0,28.24,11.93,28.24,24.59,0,12.41-8.64,17-11.93,18.86,16.92,5.72,16.92,18.75,16.92,21.79,0,15.7-15.22,28.23-33.35,28.23-10.47,0-22.27-4-28.11-12.65-4-5.85-4.63-12.66-5-15.95H650c.49,2.07,2.07,8.28,10.35,8.4,6.69,0,9.85-4.38,9.85-10.1,0-8.52-8.76-9.13-12-9.13H650V806.11h3.9c2.06,0,11.31,0,11.31-9,0-3.9-1.82-7.91-6.32-7.91-6.7,0-6.94,5.6-7.06,7.79Z" transform="translate(-350.88 -159.74)"/><path d="M769.64,800.88a24.85,24.85,0,0,0-4.75-6.08,22.4,22.4,0,0,0-15.09-5.6c-11.31,0-24.58,8.4-24.58,26.16,0,18.87,13.39,27,24.71,27a24.23,24.23,0,0,0,14.11-4,18.28,18.28,0,0,0,7.43-10.47h-26.9V809.52H798c.49,6.45-.24,17-4.14,25.8-8.76,19.84-29,27.26-43.81,27.26-27.26,0-47.83-21.29-47.83-47.22,0-26.89,21.66-46.37,48.19-46.37,21.54,0,40,14.49,45,31.89Z" transform="translate(-350.88 -159.74)"/><path d="M880.14,860.76h-20.2v-7.3c-3.65,6.57-12.05,9.61-20,9.61-21.42,0-34-16.79-34-36.14,0-22.15,16-36,34-36,11.07,0,17.28,5.36,20,9.49v-7.18h20.2Zm-53.91-33.47c0,6.21,4.62,16.92,16.79,16.92,7.18,0,11.56-3.41,14.12-7.55a18.61,18.61,0,0,0,2.8-8.64,17.47,17.47,0,0,0-1.7-8.88c-2.2-4.63-6.82-9.37-15.34-9.37-11.56,0-16.67,9.73-16.67,17.4Z" transform="translate(-350.88 -159.74)"/><path d="M894.86,793.21h18.87v7.18a15.78,15.78,0,0,1,4.13-4.74c2.93-2.44,7.67-4.75,14.73-4.75a20.63,20.63,0,0,1,15.46,6.45,22.7,22.7,0,0,1,4,5.6,27.45,27.45,0,0,1,4.87-5.84,24,24,0,0,1,16.55-6.21c4.75,0,12.3,1.1,17.77,6.82,6.33,6.69,7.3,11.19,7.3,26.16v36.88h-20.2v-35.9c0-2.8,0-6.45-1.34-9.5s-3.77-5.47-9-5.47c-5.6,0-8.4,2.55-9.74,5.6a19.32,19.32,0,0,0-1.46,8.39v36.88h-20.2V824a23.07,23.07,0,0,0-1.22-8.39c-1.34-3.17-3.77-5.72-8.88-5.72-5.72,0-8.52,2.67-10,6a22.22,22.22,0,0,0-1.46,9v35.9H894.86Z" transform="translate(-350.88 -159.74)"/><path d="M1029.34,834c.85,7.18,7.67,11.93,15.58,11.93,6.45,0,9.85-2.8,12.29-6.33h20.69a39.59,39.59,0,0,1-13.75,17.28,32.83,32.83,0,0,1-19.23,6.09,35.84,35.84,0,0,1-35.78-35.78c0-18.86,14.84-36.27,35.41-36.27a34.57,34.57,0,0,1,25.56,10.71c8.52,9.13,11.07,20,9.49,32.37Zm30.42-15.33c-.48-3.16-4.62-10.71-15.09-10.71s-14.6,7.55-15.09,10.71Z" transform="translate(-350.88 -159.74)"/><path d="M1120.12,812.2c-.12-1.46-.36-5.11-6.32-5.11-4.26,0-5.72,2.68-5.72,4.5,0,3,5,5.11,10.34,6.69,11.44,3.17,23.61,6.58,23.61,21.18,0,14.85-12.53,23.61-27.5,23.61-10.23,0-25.68-4.62-27.51-22.39h20.08c.85,6.21,6.82,6.21,7.67,6.21,3.41,0,7.06-1.95,7.06-5.24,0-4.62-5-5.23-17.89-10.22-8.76-2.8-16.07-8.52-16.07-17.65,0-14,12.17-22.88,26.17-22.88,8.88,0,24.22,3.53,25.92,21.3Z" transform="translate(-350.88 -159.74)"/></svg>