<svg id="Layer_1" data-name="Layer 1" xmlns="http://www.w3.org/2000/svg" xmlns:xlink="http://www.w3.org/1999/xlink" viewBox="0 0 1111.57 275.99"><defs><style>.cls-1{fill:url(#linear-gradient);}.cls-2{fill:url(#linear-gradient-2);}.cls-3{fill:url(#linear-gradient-3);}.cls-4{fill:#9500ff;}.cls-5{fill:url(#linear-gradient-4);}.cls-6{fill:#fff;}</style><linearGradient id="linear-gradient" x1="223.56" y1="95.71" x2="183.66" y2="222.06" gradientUnits="userSpaceOnUse"><stop offset="0.08" stop-color="#62dfff"/><stop offset="1" stop-color="#97ecff"/></linearGradient><linearGradient id="linear-gradient-2" x1="7.17" y1="12.99" x2="69.24" y2="185.9" gradientUnits="userSpaceOnUse"><stop offset="0.03" stop-color="#6e17e8"/><stop offset="1" stop-color="#9500ff"/></linearGradient><linearGradient id="linear-gradient-3" x1="79.32" y1="79.38" x2="79.32" y2="181.35" xlink:href="#linear-gradient-2"/><linearGradient id="linear-gradient-4" x1="162.24" y1="-31.52" x2="202.14" y2="145.81" gradientUnits="userSpaceOnUse"><stop offset="0.08" stop-color="#6e17e8"/><stop offset="1" stop-color="#62dfff"/></linearGradient></defs><polygon class="cls-1" points="258.8 138 219.14 207 179.48 275.99 139.82 207 179.48 138 219.14 69 258.8 138"/><polygon class="cls-2" points="79.32 103.5 39.66 34.51 0 103.5 39.66 172.5 79.32 103.5"/><polygon class="cls-3" points="118.98 172.5 79.32 103.5 39.66 172.5 79.32 241.49 118.98 172.5"/><polygon class="cls-4" points="137.78 139.8 118.98 172.5 79.32 103.5 98.12 70.8 137.78 139.8"/><polygon class="cls-5" points="258.8 0 219.14 69 179.48 138 139.82 69 154.15 44.06 105.09 44.06 105.15 43.97 79.87 0 258.8 0"/><path class="cls-6" d="M346.67,784.68H370l12.3,58.54,13.26-58.54h17.65l13.26,58.78,12.3-58.78H462l-23.85,90.06H418l-13.75-58.29-13.51,58.29H369.91Z" transform="translate(-26.25 -692.02)"/><path class="cls-6" d="M479.44,848c.85,7.18,7.67,11.92,15.58,11.92,6.45,0,9.85-2.8,12.29-6.33H528a39.68,39.68,0,0,1-13.75,17.29A32.89,32.89,0,0,1,495,876.93a35.84,35.84,0,0,1-35.78-35.78c0-18.86,14.84-36.27,35.41-36.27a34.57,34.57,0,0,1,25.56,10.71c8.52,9.13,11.07,20,9.49,32.38Zm30.42-15.34c-.48-3.16-4.62-10.71-15.09-10.71s-14.6,7.55-15.09,10.71Z" transform="translate(-26.25 -692.02)"/><path class="cls-6" d="M541.5,784.68h20.21v27.87c7.18-7.67,16.79-7.67,19.59-7.67,14.12,0,33.22,10.1,33.22,35.66,0,24.34-16.91,36.51-34.07,36.51-9.5,0-16.8-4.62-19.6-9.49v7.18H541.5Zm52.82,56.11c0-8.65-6.57-17-16.55-17-10.71,0-16.79,8.64-16.79,17,0,9.37,6.32,17.4,16.43,17.4,10.34,0,16.91-8.4,16.91-17.28Z" transform="translate(-26.25 -692.02)"/><path class="cls-6" d="M625,811c.24-10.83,4.86-17.77,11-22s13.75-6,19.84-6C673.3,783,684,794.9,684,807.56c0,12.41-8.64,17-11.92,18.86C689,832.14,689,845.17,689,848.21c0,15.7-15.21,28.24-33.34,28.24-10.47,0-22.28-4-28.12-12.66-4-5.84-4.62-12.66-5-15.95H645.8c.48,2.07,2.07,8.28,10.34,8.4,6.7,0,9.86-4.38,9.86-10.1,0-8.52-8.76-9.13-12-9.13H645.8V820.1h3.89c2.07,0,11.32,0,11.32-9,0-3.89-1.82-7.91-6.33-7.91-6.69,0-6.94,5.6-7.06,7.79Z" transform="translate(-26.25 -692.02)"/><path class="cls-6" d="M765.43,814.86a24.85,24.85,0,0,0-4.75-6.08,22.4,22.4,0,0,0-15.09-5.6c-11.32,0-24.58,8.4-24.58,26.17,0,18.86,13.38,27,24.7,27a24.26,24.26,0,0,0,14.12-4,18.22,18.22,0,0,0,7.42-10.47H740.36V823.5h53.42c.49,6.45-.24,17-4.13,25.8-8.77,19.84-29,27.27-43.82,27.27-27.26,0-47.83-21.3-47.83-47.22,0-26.9,21.67-46.37,48.2-46.37,21.54,0,40,14.48,45,31.88Z" transform="translate(-26.25 -692.02)"/><path class="cls-6" d="M875.93,874.74h-20.2v-7.3c-3.66,6.57-12.05,9.61-20,9.61-21.42,0-34-16.79-34-36.14,0-22.15,15.94-36,34-36,11.07,0,17.28,5.36,20,9.5V807.2h20.2ZM822,841.27c0,6.21,4.63,16.92,16.8,16.92,7.18,0,11.56-3.41,14.12-7.55a18.65,18.65,0,0,0,2.8-8.64,17.37,17.37,0,0,0-1.71-8.88c-2.19-4.63-6.81-9.37-15.33-9.37-11.57,0-16.68,9.73-16.68,17.4Z" transform="translate(-26.25 -692.02)"/><path class="cls-6" d="M890.65,807.2h18.86v7.18a15.88,15.88,0,0,1,4.14-4.75c2.92-2.43,7.67-4.75,14.73-4.75a20.62,20.62,0,0,1,15.45,6.45,23,23,0,0,1,4,5.6,27.45,27.45,0,0,1,4.87-5.84,24,24,0,0,1,16.55-6.21c4.75,0,12.29,1.1,17.77,6.82,6.33,6.69,7.3,11.2,7.3,26.17v36.87h-20.2v-35.9c0-2.8,0-6.45-1.34-9.49s-3.77-5.48-9-5.48c-5.6,0-8.39,2.55-9.73,5.6a19.34,19.34,0,0,0-1.46,8.4v36.87H932.39V838a23.27,23.27,0,0,0-1.21-8.4c-1.34-3.17-3.78-5.72-8.89-5.72-5.72,0-8.52,2.68-10,6a22.22,22.22,0,0,0-1.46,9v35.9h-20.2Z" transform="translate(-26.25 -692.02)"/><path class="cls-6" d="M1025.12,848c.86,7.18,7.67,11.92,15.58,11.92,6.45,0,9.86-2.8,12.29-6.33h20.69a39.61,39.61,0,0,1-13.75,17.29,32.87,32.87,0,0,1-19.23,6.08,35.84,35.84,0,0,1-35.78-35.78c0-18.86,14.85-36.27,35.42-36.27a34.58,34.58,0,0,1,25.56,10.71c8.51,9.13,11.07,20,9.49,32.38Zm30.43-15.34c-.49-3.16-4.62-10.71-15.09-10.71s-14.6,7.55-15.09,10.71Z" transform="translate(-26.25 -692.02)"/><path class="cls-6" d="M1115.91,826.18c-.12-1.46-.36-5.11-6.33-5.11-4.26,0-5.72,2.68-5.72,4.5,0,3,5,5.11,10.35,6.7,11.44,3.16,23.61,6.57,23.61,21.17,0,14.85-12.54,23.61-27.51,23.61-10.22,0-25.68-4.62-27.5-22.39h20.08c.85,6.21,6.81,6.21,7.67,6.21,3.4,0,7-2,7-5.24,0-4.62-5-5.23-17.89-10.22-8.76-2.8-16.06-8.52-16.06-17.65,0-14,12.17-22.88,26.17-22.88,8.88,0,24.21,3.53,25.92,21.3Z" transform="translate(-26.25 -692.02)"/></svg>