<?xml version="1.0" encoding="UTF-8"?>
<svg width="16px" height="16px" viewBox="0 0 16 16" version="1.1" xmlns="http://www.w3.org/2000/svg" xmlns:xlink="http://www.w3.org/1999/xlink">
    <title>失败</title>
    <g id="页面-1" stroke="none" stroke-width="1" fill="none" fill-rule="evenodd">
        <g id="001" transform="translate(-72.000000, -324.000000)" fill="#FFFFFF" fill-rule="nonzero">
            <g id="编组" transform="translate(56.000000, 320.000000)">
                <path d="M24,4 C28.418278,4 32,7.581722 32,12 C32,16.418278 28.418278,20 24,20 C19.581722,20 16,16.418278 16,12 C16,7.581722 19.581722,4 24,4 Z M24,5 C20.1340068,5 17,8.13400675 17,12 C17,15.8659932 20.1340068,19 24,19 C27.8659932,19 31,15.8659932 31,12 C31,8.13400675 27.8659932,5 24,5 Z M21.492866,8.44899516 L21.5696699,8.51611652 L24.0393398,10.9848804 L26.5090097,8.51611652 C26.801903,8.2232233 27.2767767,8.2232233 27.5696699,8.51611652 C27.8381554,8.78460197 27.8605292,9.20600161 27.6367913,9.49997276 L27.5696699,9.5767767 L25.1,12.0455405 L27.5696699,14.5161165 C27.8625631,14.8090097 27.8625631,15.2838835 27.5696699,15.5767767 C27.3011845,15.8452621 26.8797848,15.8676359 26.5858137,15.6438981 L26.5090097,15.5767767 L24.0393398,13.1062007 L21.5696699,15.5767767 C21.2767767,15.8696699 20.801903,15.8696699 20.5090097,15.5767767 C20.2405243,15.3082912 20.2181505,14.8868916 20.4418884,14.5929205 L20.5090097,14.5161165 L22.9786797,12.0455405 L20.5090097,9.5767767 C20.2161165,9.28388348 20.2161165,8.80900974 20.5090097,8.51611652 C20.7774952,8.24763107 21.1988948,8.22525729 21.492866,8.44899516 Z" id="失败"></path>
            </g>
        </g>
    </g>
</svg>