<?xml version="1.0" encoding="UTF-8"?>
<svg width="182px" height="38px" viewBox="0 0 182 38" version="1.1" xmlns="http://www.w3.org/2000/svg" xmlns:xlink="http://www.w3.org/1999/xlink">
    <title>InkBridge</title>
    <g id="页面-1" stroke="none" stroke-width="1" fill="none" fill-rule="evenodd">
        <g id="001" transform="translate(-43.000000, -25.000000)" fill="#111111" fill-rule="nonzero">
            <path d="M48.96,54 L48.96,27.6 L43.44,27.6 L43.44,54 L48.96,54 Z M60.64,54 L60.64,43.4 C60.64,42.0666667 60.86,41 61.3,40.2 C61.74,39.4 62.3133333,38.82 63.02,38.46 C63.7266667,38.1 64.4533333,37.92 65.2,37.92 C66.2666667,37.92 67.1333333,38.2466667 67.8,38.9 C68.4666667,39.5533333 68.8,40.7333333 68.8,42.44 L68.8,42.44 L68.8,54 L74.28,54 L74.28,40.88 C74.28,39.2533333 73.9666667,37.9 73.34,36.82 C72.7133333,35.74 71.86,34.9333333 70.78,34.4 C69.7,33.8666667 68.4666667,33.6 67.08,33.6 C65.88,33.6 64.78,33.8133333 63.78,34.24 C62.78,34.6666667 61.9333333,35.3 61.24,36.14 C60.9248485,36.5218182 60.6482645,36.9518457 60.4102479,37.4300826 L60.278,37.711 L60.08,34 L55.16,34 L55.16,54 L60.64,54 Z M85.4,54 L85.4,49.054 L89.035,45.153 L94.56,54 L100.76,54 L92.769,41.836 L100.28,34 L94.04,34 L85.4,43.15 L85.4,25.24 L79.92,25.24 L79.92,54 L85.4,54 Z M116.52,54 C119.666667,54 122.06,53.36 123.7,52.08 C125.34,50.8 126.16,49.0266667 126.16,46.76 C126.16,45.2133333 125.666667,43.88 124.68,42.76 C123.693333,41.64 122.28,40.9466667 120.44,40.68 L120.44,40.68 L120.44,40.64 C122.093333,40.3466667 123.346667,39.6533333 124.2,38.56 C125.053333,37.4666667 125.48,36.2133333 125.48,34.8 C125.48,32.5066667 124.72,30.7333333 123.2,29.48 C121.68,28.2266667 119.32,27.6 116.12,27.6 L116.12,27.6 L104.56,27.6 L104.56,54 L116.52,54 Z M115.4,38.68 L109.92,38.68 L109.92,31.88 L115.4,31.88 C118.306667,31.88 119.76,33.0133333 119.76,35.28 C119.76,37.5466667 118.306667,38.68 115.4,38.68 L115.4,38.68 Z M116.04,49.84 L109.92,49.84 L109.92,42.92 L116.04,42.92 C117.533333,42.92 118.64,43.2133333 119.36,43.8 C120.08,44.3866667 120.44,45.24 120.44,46.36 C120.44,47.4533333 120.08,48.3066667 119.36,48.92 C118.64,49.5333333 117.533333,49.84 116.04,49.84 L116.04,49.84 Z M136.36,54 L136.36,43.64 C136.36,42.44 136.6,41.4466667 137.08,40.66 C137.56,39.8733333 138.173333,39.2866667 138.92,38.9 C139.666667,38.5133333 140.44,38.32 141.24,38.32 C141.853333,38.32 142.353333,38.3466667 142.74,38.4 C143.126667,38.4533333 143.453333,38.5333333 143.72,38.64 L143.72,38.64 L144.36,34.04 C144.12,33.9066667 143.813333,33.8 143.44,33.72 C143.066667,33.64 142.653333,33.6 142.2,33.6 C140.653333,33.6 139.366667,33.9733333 138.34,34.72 C137.313333,35.4666667 136.533333,36.5333333 136,37.92 L136,37.92 L135.64,34 L130.88,34 L130.88,54 L136.36,54 Z M150.52,31.12 C151.666667,31.12 152.52,30.8733333 153.08,30.38 C153.64,29.8866667 153.92,29.16 153.92,28.2 C153.92,27.2133333 153.64,26.4733333 153.08,25.98 C152.52,25.4866667 151.666667,25.24 150.52,25.24 C149.373333,25.24 148.52,25.4866667 147.96,25.98 C147.4,26.4733333 147.12,27.2133333 147.12,28.2 C147.12,29.16 147.4,29.8866667 147.96,30.38 C148.52,30.8733333 149.373333,31.12 150.52,31.12 Z M153.24,54 L153.24,34 L147.76,34 L147.76,54 L153.24,54 Z M166.6,54.4 C167.826667,54.4 168.946667,54.1466667 169.96,53.64 C170.973333,53.1333333 171.813333,52.42 172.48,51.5 C172.722424,51.1654545 172.93135,50.8088705 173.106777,50.4302479 L173.214,50.185 L173.44,54 L178.36,54 L178.36,25.24 L172.88,25.24 L172.88,37.451 L172.792,37.2608 C172.436444,36.5326222 171.967111,35.8878815 171.384,35.3265778 L171.16,35.12 C170.013333,34.1066667 168.56,33.6 166.8,33.6 C165.146667,33.6 163.66,34.0066667 162.34,34.82 C161.02,35.6333333 159.973333,36.82 159.2,38.38 C158.426667,39.94 158.04,41.8266667 158.04,44.04 C158.04,46.2 158.406667,48.0533333 159.14,49.6 C159.873333,51.1466667 160.886667,52.3333333 162.18,53.16 C163.473333,53.9866667 164.946667,54.4 166.6,54.4 Z M168.2,50.2 C166.733333,50.2 165.586667,49.6733333 164.76,48.62 C163.933333,47.5666667 163.52,46.0266667 163.52,44 C163.52,41.9733333 163.94,40.4333333 164.78,39.38 C165.62,38.3266667 166.786667,37.8 168.28,37.8 C169.213333,37.8 170.026667,38.04 170.72,38.52 C171.413333,39 171.946667,39.6866667 172.32,40.58 C172.693333,41.4733333 172.88,42.56 172.88,43.84 C172.88,45.1733333 172.686667,46.32 172.3,47.28 C171.913333,48.24 171.373333,48.9666667 170.68,49.46 C169.986667,49.9533333 169.16,50.2 168.2,50.2 Z M192.24,62.6 C194.32,62.6 196.153333,62.3333333 197.74,61.8 C199.326667,61.2666667 200.56,60.4733333 201.44,59.42 C202.32,58.3666667 202.76,57.08 202.76,55.56 C202.76,53.88 202.173333,52.5733333 201,51.64 C199.826667,50.7066667 198.16,50.24 196,50.24 L196,50.24 L189.84,50.24 C189.013333,50.24 188.38,50.1 187.94,49.82 C187.5,49.54 187.28,49.12 187.28,48.56 C187.28,48.08 187.513333,47.6466667 187.98,47.26 C188.174444,47.0988889 188.427917,46.9643981 188.740417,46.8565278 L188.864,46.818 L189.035372,46.8554132 C189.905455,47.0359091 190.867218,47.1361846 191.920661,47.1562397 L192.32,47.16 C194.186667,47.16 195.806667,46.8866667 197.18,46.34 C198.553333,45.7933333 199.606667,45.0133333 200.34,44 C201.073333,42.9866667 201.44,41.7866667 201.44,40.4 C201.44,38.9866667 201.073333,37.7733333 200.34,36.76 C200.001538,36.2923077 199.594911,35.8743195 199.120118,35.5060355 L198.897,35.341 L198.939053,35.1840237 C199.068836,34.7527022 199.289467,34.3813018 199.600947,34.0698225 L199.74,33.94 C200.366667,33.3933333 201.28,33.12 202.48,33.12 C202.613333,33.12 202.74,33.1266667 202.86,33.14 C202.98,33.1533333 203.093333,33.16 203.2,33.16 L203.2,33.16 L202.56,29.24 L202.56,29.24 L202.12,29.24 C200.946667,29.24 199.94,29.52 199.1,30.08 C198.26,30.64 197.626667,31.38 197.2,32.3 C196.962963,32.8111111 196.79177,33.344856 196.68642,33.9012346 L196.633,34.224 L196.472778,34.1694444 C195.381111,33.8277778 194.150694,33.6398611 192.781528,33.6056944 L192.32,33.6 C190.426667,33.6 188.8,33.8733333 187.44,34.42 C186.08,34.9666667 185.026667,35.7466667 184.28,36.76 C183.533333,37.7733333 183.16,38.9866667 183.16,40.4 C183.16,42.48 183.946667,44.1266667 185.52,45.34 C185.734545,45.5054545 185.961983,45.6596281 186.202314,45.8025207 L186.358,45.892 L186.10449,45.9885714 C185.662313,46.1695238 185.263503,46.3921429 184.908061,46.6564286 L184.7,46.82 C183.753333,47.6066667 183.28,48.6133333 183.28,49.84 C183.28,51.04 183.646667,51.98 184.38,52.66 C184.774872,53.0261538 185.264458,53.3285207 185.848757,53.5671006 L185.94,53.603 L185.905606,53.6092734 C184.990265,53.7947405 184.26639,54.0955479 183.733979,54.5116955 L183.58,54.64 C182.74,55.3866667 182.32,56.3066667 182.32,57.4 C182.32,58.9466667 183.113333,60.2 184.7,61.16 C186.286667,62.12 188.8,62.6 192.24,62.6 Z M192.32,43.72 C191.253333,43.72 190.373333,43.42 189.68,42.82 C188.986667,42.22 188.64,41.4 188.64,40.36 C188.64,39.32 188.986667,38.5066667 189.68,37.92 C190.373333,37.3333333 191.253333,37.04 192.32,37.04 C193.386667,37.04 194.26,37.3333333 194.94,37.92 C195.62,38.5066667 195.96,39.32 195.96,40.36 C195.96,41.4 195.62,42.22 194.94,42.82 C194.26,43.42 193.386667,43.72 192.32,43.72 Z M192.28,58.84 C190.52,58.84 189.14,58.6266667 188.14,58.2 C187.14,57.7733333 186.64,57.1866667 186.64,56.44 C186.64,55.88 186.846667,55.44 187.26,55.12 C187.673333,54.8 188.2,54.64 188.84,54.64 L188.84,54.64 L195.6,54.64 C196.64,54.64 197.36,54.7933333 197.76,55.1 C198.16,55.4066667 198.36,55.8133333 198.36,56.32 C198.36,56.7733333 198.14,57.1866667 197.7,57.56 C197.26,57.9333333 196.593333,58.24 195.7,58.48 C194.806667,58.72 193.666667,58.84 192.28,58.84 Z M215.36,54.4 C216.72,54.4 217.993333,54.2066667 219.18,53.82 C220.366667,53.4333333 221.393333,52.8666667 222.26,52.12 C223.126667,51.3733333 223.773333,50.48 224.2,49.44 L224.2,49.44 L219.84,47.76 C219.44,48.56 218.88,49.1866667 218.16,49.64 C217.44,50.0933333 216.493333,50.32 215.32,50.32 C214.253333,50.32 213.34,50.0933333 212.58,49.64 C211.82,49.1866667 211.233333,48.5 210.82,47.58 C210.594545,47.0781818 210.430579,46.5029752 210.328099,45.8543802 L210.309,45.72 L224.44,45.72 C224.482667,45.4213333 224.5168,45.0885333 224.5424,44.7216 L224.56,44.44 C224.586667,43.96 224.6,43.4533333 224.6,42.92 C224.6,41.1333333 224.226667,39.54 223.48,38.14 C222.733333,36.74 221.653333,35.6333333 220.24,34.82 C218.826667,34.0066667 217.106667,33.6 215.08,33.6 C213.106667,33.6 211.353333,34.0133333 209.82,34.84 C208.286667,35.6666667 207.093333,36.8533333 206.24,38.4 C205.386667,39.9466667 204.96,41.8133333 204.96,44 C204.96,46.1866667 205.386667,48.0533333 206.24,49.6 C207.093333,51.1466667 208.3,52.3333333 209.86,53.16 C211.42,53.9866667 213.253333,54.4 215.36,54.4 Z M219.354,41.92 L210.371,41.92 L210.426777,41.6305785 C210.49157,41.3234711 210.570248,41.0347107 210.66281,40.7642975 L210.76,40.5 C211.133333,39.5533333 211.686667,38.84 212.42,38.36 C213.153333,37.88 214.026667,37.64 215.04,37.64 C216.426667,37.64 217.5,38.0933333 218.26,39 C218.868,39.7253333 219.2328,40.6981333 219.3544,41.9184 L219.354,41.92 Z" id="InkBridge"></path>
        </g>
    </g>
</svg>