<?xml version="1.0" standalone="no"?><!DOCTYPE svg PUBLIC "-//W3C//DTD SVG 1.1//EN" "http://www.w3.org/Graphics/SVG/1.1/DTD/svg11.dtd"><svg t="1614244630885" class="icon" viewBox="0 0 1024 1024" version="1.1" xmlns="http://www.w3.org/2000/svg" p-id="4360" xmlns:xlink="http://www.w3.org/1999/xlink" width="200" height="200"><path d="M479.872 546.624c0.448-32.64-24.384-59.52-54.592-59.52-30.72 0-54.144 26.88-54.144 59.52 0 32.192 24.32 59.52 54.144 59.52 30.208 0 54.592-27.328 54.592-59.52zM674.944 546.624c0-32.64-24.32-59.52-54.592-59.52-30.72 0-54.144 26.88-54.144 59.52 0 32.192 24.384 59.52 54.144 59.52 30.208 0 54.592-27.328 54.592-59.52z" p-id="4361"></path><path d="M512 1024A512 512 0 1 1 512 0a512 512 0 0 1 0 1024zM308.672 363.776c48.256-42.88 132.16-67.84 132.16-67.84l-7.808-7.744c-79.04 1.472-150.72 56.064-150.72 56.064-80.448 167.68-75.072 313.024-75.072 313.024 65.344 84.864 162.88 78.528 162.88 78.528l33.152-41.92c-58.496-12.672-95.552-64.384-95.552-64.384s87.744 59.968 214.016 59.968c126.336 0 214.08-59.968 214.08-59.968s-37.056 52.16-95.552 64.384l33.152 41.92s97.024 6.4 162.88-78.528c0 0 5.312-144.768-75.584-313.024 0 0-71.68-54.592-150.72-56.064l-7.744 7.808s84.352 24.832 132.096 67.776c1.024 0-87.296-53.632-212.608-53.632s-213.12 53.632-213.12 53.632z" p-id="4362" data-spm-anchor-id="a313x.7781069.0.i5" class="selected"></path></svg>