<?xml version="1.0" standalone="no"?><!DOCTYPE svg PUBLIC "-//W3C//DTD SVG 1.1//EN" "http://www.w3.org/Graphics/SVG/1.1/DTD/svg11.dtd"><svg t="1611631596966" class="icon" viewBox="0 0 1024 1024" version="1.1" xmlns="http://www.w3.org/2000/svg" p-id="6690" xmlns:xlink="http://www.w3.org/1999/xlink" width="200" height="200"><path d="M85.333333 682.666667v128a128 128 0 0 0 128 128h128a42.666667 42.666667 0 0 0 0-85.333334H213.333333a42.666667 42.666667 0 0 1-42.666666-42.666666v-128a42.666667 42.666667 0 0 0-85.333334 0z m597.333334 256h128a128 128 0 0 0 128-128v-128a42.666667 42.666667 0 0 0-85.333334 0v128a42.666667 42.666667 0 0 1-42.666666 42.666666h-128a42.666667 42.666667 0 0 0 0 85.333334z m256-597.333334V213.333333a128 128 0 0 0-128-128h-128a42.666667 42.666667 0 0 0 0 85.333334h128a42.666667 42.666667 0 0 1 42.666666 42.666666v128a42.666667 42.666667 0 0 0 85.333334 0zM341.333333 85.333333H213.333333a128 128 0 0 0-128 128v128a42.666667 42.666667 0 0 0 85.333334 0V213.333333a42.666667 42.666667 0 0 1 42.666666-42.666666h128a42.666667 42.666667 0 0 0 0-85.333334z" p-id="6691"></path></svg>