<?xml version="1.0" standalone="no"?><!DOCTYPE svg PUBLIC "-//W3C//DTD SVG 1.1//EN" "http://www.w3.org/Graphics/SVG/1.1/DTD/svg11.dtd"><svg t="1611328058319" class="icon" viewBox="0 0 1024 1024" version="1.1" xmlns="http://www.w3.org/2000/svg" p-id="5362" xmlns:xlink="http://www.w3.org/1999/xlink" width="200" height="200"><path d="M512 947.2c-12.8 0-21.333333-4.266667-29.866667-12.8l-375.466666-375.466667C55.466667 507.733333 25.6 435.2 25.6 362.666667s29.866667-145.066667 81.066667-196.266667S226.133333 85.333333 298.666667 85.333333c72.533333 0 145.066667 29.866667 196.266666 81.066667l17.066667 17.066667 17.066667-17.066667C580.266667 115.2 648.533333 85.333333 725.333333 85.333333c72.533333 0 145.066667 29.866667 196.266667 81.066667 106.666667 106.666667 106.666667 285.866667 0 392.533333l-375.466667 375.466667c-12.8 8.533333-21.333333 12.8-34.133333 12.8z" p-id="5363"></path></svg>