<?xml version="1.0" standalone="no"?><!DOCTYPE svg PUBLIC "-//W3C//DTD SVG 1.1//EN" "http://www.w3.org/Graphics/SVG/1.1/DTD/svg11.dtd"><svg t="1614244483609" class="icon" viewBox="0 0 1024 1024" version="1.1" xmlns="http://www.w3.org/2000/svg" p-id="1689" data-spm-anchor-id="a313x.7781069.0.i1" xmlns:xlink="http://www.w3.org/1999/xlink" width="200" height="200"><path d="M512 1024C229.212 1024 0 794.788 0 512S229.212 0 512 0s512 229.212 512 512-229.212 512-512 512z m274.432-353.157H765.01c-4.014 0-8.192-2.048-12.534-6.144-4.3-4.137-6.472-8.11-6.472-11.92V372.819c0-3.768 2.212-8.028 6.636-12.698 4.424-4.67 8.56-6.963 12.37-6.963h21.422V286.72H584.294l-67.256 260.874h-1.843L448.512 286.72H245.76v66.437h20.808c4.219 0 8.601 2.335 12.984 6.963 4.424 4.67 6.636 8.889 6.636 12.698V652.78c0 3.809-2.212 7.782-6.636 11.878-4.424 4.137-8.765 6.185-12.984 6.185H245.76v66.437h162.324v-66.437H367.33V376.668h2.376l93.553 360.612h73.318l94.74-360.612h1.803v294.175H592.69v66.437h193.741v-66.437z" p-id="1690" data-spm-anchor-id="a313x.7781069.0.i0" class="selected"></path></svg>