<?xml version="1.0" standalone="no"?><!DOCTYPE svg PUBLIC "-//W3C//DTD SVG 1.1//EN" "http://www.w3.org/Graphics/SVG/1.1/DTD/svg11.dtd"><svg t="1611630843331" class="icon" viewBox="0 0 1024 1024" version="1.1" xmlns="http://www.w3.org/2000/svg" p-id="5462" xmlns:xlink="http://www.w3.org/1999/xlink" width="200" height="200"><path d="M871.253333 139.52a39.509333 39.509333 0 1 1 55.850667 55.936L195.370667 927.146667a40.405333 40.405333 0 0 1-27.904 11.562666 41.088 41.088 0 0 1-27.776-11.434666 39.68 39.68 0 0 1-0.170667-56.021334l120.618667-120.618666h-1.237334c-60.117333 0-103.893333-42.453333-112-108.373334-9.088-65.92-7.253333-178.858667 0-238.933333 8.533333-62.293333 54.613333-105.173333 112-105.173333h78.08l149.077334-121.941334c18.133333-15.36 50.176-29.866667 75.008-30.250666 45.141333 0 86.698667 31.573333 101.589333 82.176 5.888 21.248 8.192 42.410667 9.984 62.805333l3.584 28.842667c0.597333 4.437333 1.109333 8.704 1.578667 13.226666L871.253333 139.52z m-236.373333 446.336c6.144-5.973333 19.754667-10.24 25.898667-8.661333 16.597333 4.224 19.84 27.989333 19.584 46.72-0.768 54.272-2.56 92.032-5.461334 115.370666l-2.048 19.242667v0.341333c-1.962667 19.370667-3.968 39.381333-9.685333 60.757334-15.061333 50.517333-55.381333 83.285333-101.248 83.285333l-4.522667-0.042667c-25.344 0-52.778667-15.189333-68.394666-28.416l-55.466667-42.922666c-21.12-15.701333-14.890667-40.704-3.072-55.210667 8.874667-10.794667 115.072-108.288 170.88-159.488 18.901333-17.365333 32-29.44 33.578667-30.976z" p-id="5463"></path></svg>