<?xml version="1.0" standalone="no"?><!DOCTYPE svg PUBLIC "-//W3C//DTD SVG 1.1//EN" "http://www.w3.org/Graphics/SVG/1.1/DTD/svg11.dtd"><svg t="1611629833548" class="icon" viewBox="0 0 1024 1024" version="1.1" xmlns="http://www.w3.org/2000/svg" p-id="3620" xmlns:xlink="http://www.w3.org/1999/xlink" width="200" height="200"><path d="M853.333333 554.666667a341.333333 341.333333 0 0 1-682.666666 22.613333 21.76 21.76 0 0 1 5.546666-15.786667 22.186667 22.186667 0 0 1 16.64-6.826666h42.666667a21.333333 21.333333 0 0 1 21.333333 19.626666A256 256 0 1 0 512 298.666667v100.693333a20.906667 20.906667 0 0 1-6.4 15.36l-8.533333 8.533333a21.333333 21.333333 0 0 1-30.293334 0L315.733333 272.64a21.76 21.76 0 0 1 0-30.293333l151.04-150.613334a21.333333 21.333333 0 0 1 30.293334 0l8.533333 8.533334a20.906667 20.906667 0 0 1 6.4 15.36V213.333333a341.333333 341.333333 0 0 1 341.333333 341.333334z" p-id="3621"></path></svg>