<?xml version="1.0" standalone="no"?><!DOCTYPE svg PUBLIC "-//W3C//DTD SVG 1.1//EN" "http://www.w3.org/Graphics/SVG/1.1/DTD/svg11.dtd"><svg t="1611633200142" class="icon" viewBox="0 0 1024 1024" version="1.1" xmlns="http://www.w3.org/2000/svg" p-id="6899" xmlns:xlink="http://www.w3.org/1999/xlink" width="200" height="200"><path d="M385.9 191c19 0 34.4 15.4 34.4 34.4V340c0 44.3-35.9 80.3-80.3 80.3H225.4c-19 0-34.4-15.4-34.4-34.4s15.4-34.4 34.4-34.4H340c6.3 0 11.5-5.1 11.5-11.5V225.4c0-19 15.4-34.4 34.4-34.4z m252.2 0c19 0 34.4 15.4 34.4 34.4V340c0 6.3 5.1 11.5 11.5 11.5h114.6c19 0 34.4 15.4 34.4 34.4s-15.4 34.4-34.4 34.4H684c-44.3 0-80.3-35.9-80.3-80.3V225.4c0-19 15.4-34.4 34.4-34.4zM191 638.1c0-19 15.4-34.4 34.4-34.4H340c44.3 0 80.3 35.9 80.3 80.3v114.6c0 19-15.4 34.4-34.4 34.4s-34.4-15.4-34.4-34.4V684c0-6.3-5.1-11.5-11.5-11.5H225.4c-19 0-34.4-15.4-34.4-34.4zM603.7 684c0-44.3 35.9-80.3 80.3-80.3h114.6c19 0 34.4 15.4 34.4 34.4s-15.4 34.4-34.4 34.4H684c-6.3 0-11.5 5.1-11.5 11.5v114.6c0 19-15.4 34.4-34.4 34.4s-34.4-15.4-34.4-34.4V684z" p-id="6900"></path></svg>