<?xml version="1.0" standalone="no"?><!DOCTYPE svg PUBLIC "-//W3C//DTD SVG 1.1//EN" "http://www.w3.org/Graphics/SVG/1.1/DTD/svg11.dtd"><svg t="1614243948812" class="icon" viewBox="0 0 1024 1024" version="1.1" xmlns="http://www.w3.org/2000/svg" p-id="1728" xmlns:xlink="http://www.w3.org/1999/xlink" width="200" height="200"><path d="M289.80868741 326.82439111" p-id="1729"></path><path d="M512.12136297 15.89248c-277.87264 0-503.09802667 225.22538667-503.09802667 503.09802667s225.22538667 503.09802667 503.09802667 503.09802666 503.09802667-225.22538667 503.09802666-503.09802666S789.99400297 15.89248 512.12136297 15.89248zM768.00303408 422.57976889c-2.83989333 214.73962667-140.17422222 361.83153778-345.15626667 371.07939556-84.54144 3.85934222-145.78119111-23.44732445-199.08380444-57.30759112 62.47765333 9.97603555 139.95576889-15.00046222 181.38908444-50.46272-61.23975111-5.97105778-97.50300445-37.13706667-114.46954666-87.30851555 17.69472 3.05834667 36.33607111 2.25735111 53.15697777-1.31072-55.26869333-18.49571555-94.73592889-52.64725333-96.77482667-124.22712889 15.51018667 7.06332445 31.67573333 13.68974222 53.15697778 15.00046222-41.36049778-23.52014222-71.94396445-109.51793778-36.91861333-166.38862222C324.68840297 388.93795555 398.52562963 443.84256 519.76722963 451.26997333c-30.43783111-130.12536889 141.99466667-200.68579555 214.15708445-113.23164444 30.51064889-5.89824 55.34151111-17.47626667 79.22574222-30.07374222-9.8304 30.21937778-28.76302222 51.33653333-51.84625778 68.23025778 25.34058667-3.42243555 47.76846222-9.61194667 66.91953778-19.07825778C816.35403852 381.80181333 790.35809185 403.93841778 768.00303408 422.57976889z" p-id="1730"></path></svg>