<?xml version="1.0" standalone="no"?><!DOCTYPE svg PUBLIC "-//W3C//DTD SVG 1.1//EN" "http://www.w3.org/Graphics/SVG/1.1/DTD/svg11.dtd"><svg t="1611630811837" class="icon" viewBox="0 0 1024 1024" version="1.1" xmlns="http://www.w3.org/2000/svg" p-id="5181" xmlns:xlink="http://www.w3.org/1999/xlink" width="200" height="200"><path d="M645.973333 211.456c5.504 21.504 7.722667 43.008 9.898667 63.786667l2.005333 18.858666c7.68 62.976 7.68 372.394667 0 435.84l-2.005333 19.584-0.042667 0.341334c-1.92 19.626667-3.925333 39.936-9.557333 61.610666-15.018667 51.285333-55.04 84.522667-100.437333 84.522667l-4.48-0.042667c-25.088 0-52.352-15.36-67.84-28.8l-150.613334-125.482666H245.546667c-59.733333 0-103.424-43.178667-111.36-110.037334-9.130667-66.816-7.338667-181.461333 0-242.218666 8.661333-63.274667 54.442667-107.093333 111.36-107.093334h77.354666l147.797334-123.648c17.792-15.488 49.237333-30.762667 74.112-30.677333 44.586667 0 86.144 32.085333 101.12 83.456z m128.341334 55.552a38.826667 38.826667 0 0 1 54.528 10.112C872.106667 340.821333 896 424.234667 896 512s-23.893333 171.178667-67.157333 234.88a39.04 39.04 0 0 1-32.170667 17.237333 38.485333 38.485333 0 0 1-22.357333-7.125333 40.746667 40.746667 0 0 1-9.813334-55.808c34.261333-50.474667 53.12-117.674667 53.12-189.184 0-71.552-18.858667-138.666667-53.12-189.184a40.746667 40.746667 0 0 1 9.813334-55.808z" p-id="5182"></path></svg>