<?xml version="1.0" encoding="UTF-8"?>
<svg width="16px" height="16px" viewBox="0 0 16 16" version="1.1" xmlns="http://www.w3.org/2000/svg" xmlns:xlink="http://www.w3.org/1999/xlink">
    <title>icon/add/m</title>
    <g id="产品页面" stroke="none" stroke-width="1" fill="none" fill-rule="evenodd">
        <g id="NUTBOX-Staking" transform="translate(-600.000000, -734.000000)">
            <g id="编组-11" transform="translate(336.000000, 510.000000)">
                <g id="icon/add/m" transform="translate(264.000000, 224.000000)">
                    <g id="Group-2-Copy-83">
                        <rect id="Rectangle-55" x="0" y="0" width="16" height="16"></rect>
                    </g>
                    <path d="M8.03072917,2 C8.44494273,2 8.78072917,2.33578644 8.78072917,2.75 L8.78,7.244 L13.25,7.2442627 C13.6642136,7.2442627 14,7.58004913 14,7.9942627 C14,8.40847626 13.6642136,8.7442627 13.25,8.7442627 L8.78,8.744 L8.78072917,13.25 C8.78072917,13.6642136 8.44494273,14 8.03072917,14 C7.6165156,14 7.28072917,13.6642136 7.28072917,13.25 L7.28,8.744 L2.75,8.7442627 C2.33578644,8.7442627 2,8.40847626 2,7.9942627 C2,7.58004913 2.33578644,7.2442627 2.75,7.2442627 L7.28,7.244 L7.28072917,2.75 C7.28072917,2.33578644 7.6165156,2 8.03072917,2 Z" id="Combined-Shape" fill="#717376"></path>
                </g>
            </g>
        </g>
    </g>
</svg>