<?xml version="1.0" encoding="UTF-8"?>
<svg width="24px" height="24px" viewBox="0 0 24 24" version="1.1" xmlns="http://www.w3.org/2000/svg" xmlns:xlink="http://www.w3.org/1999/xlink">
    <title>icon/select/Blog</title>
    <g id="色彩规范" stroke="none" stroke-width="1" fill="none" fill-rule="evenodd">
        <g id="NutBox-icon" transform="translate(-270.000000, -362.000000)">
            <g id="编组-3" transform="translate(100.000000, 323.000000)">
                <g id="编组" transform="translate(170.000000, 39.000000)">
                    <path d="M5.5,22 C4.3954305,22 3.5,21.1045695 3.5,20 L3.5,6 C3.5,4.8954305 4.3954305,4 5.5,4 L10,4 C11.1952121,4 12.2679883,4.52421057 13.0009561,5.35525927 C13.7320117,4.52421057 14.8047879,4 16,4 L20.5,4 C21.6045695,4 22.5,4.8954305 22.5,6 L22.5,20 C22.5,21.1045695 21.6045695,22 20.5,22 L5.5,22 Z" id="形状结合" fill="#FFDB1B"></path>
                    <path d="M9,3 C10.1948975,3 11.2674235,3.55475432 12.0003773,4.43428562 C12.7325765,3.55475432 13.8051025,3 15,3 L19.5,3 C20.6045695,3 21.5,3.94810288 21.5,5.11764706 L21.5,18.8823529 C21.5,20.0518971 20.6045695,21 19.5,21 L4.5,21 C3.3954305,21 2.5,20.0518971 2.5,18.8823529 L2.5,5.11764706 C2.5,3.94810288 3.3954305,3 4.5,3 L9,3 Z M9,5 L4.5,5 L4.5,19 L11,19 L11,7.15384615 C11,6.07515293 10.2636703,5.18166788 9.30277435,5.02452089 L9.14926234,5.00590772 L9,5 Z M19.5,5 L15,5 C13.9456382,5 13.0818349,5.87863762 13.0054857,6.99310209 L13,7.15384615 L13,19 L19.5,19 L19.5,5 Z M8.5,12 C9.05228475,12 9.5,12.4477153 9.5,13 C9.5,13.5522847 9.05228475,14 8.5,14 L7,14 C6.44771525,14 6,13.5522847 6,13 C6,12.4477153 6.44771525,12 7,12 L8.5,12 Z M17,12 C17.5522847,12 18,12.4477153 18,13 C18,13.5522847 17.5522847,14 17,14 L15.5,14 C14.9477153,14 14.5,13.5522847 14.5,13 C14.5,12.4477153 14.9477153,12 15.5,12 L17,12 Z M8.5,9 C9.05228475,9 9.5,9.44771525 9.5,10 C9.5,10.5522847 9.05228475,11 8.5,11 L7,11 C6.44771525,11 6,10.5522847 6,10 C6,9.44771525 6.44771525,9 7,9 L8.5,9 Z M17,9 C17.5522847,9 18,9.44771525 18,10 C18,10.5522847 17.5522847,11 17,11 L15.5,11 C14.9477153,11 14.5,10.5522847 14.5,10 C14.5,9.44771525 14.9477153,9 15.5,9 L17,9 Z" id="形状结合" fill="#242629" fill-rule="nonzero"></path>
                </g>
            </g>
        </g>
    </g>
</svg>