<?xml version="1.0" encoding="UTF-8"?>
<svg width="32px" height="32px" viewBox="0 0 32 32" version="1.1" xmlns="http://www.w3.org/2000/svg" xmlns:xlink="http://www.w3.org/1999/xlink">
    <title>Discord</title>
    <g id="色彩规范" stroke="none" stroke-width="1" fill="none" fill-rule="evenodd">
        <g id="NutBox-icon" transform="translate(-220.000000, -512.000000)">
            <g id="编组-4" transform="translate(100.000000, 512.000000)">
                <g id="编组-18" transform="translate(120.000000, 0.000000)">
                    <rect id="矩形备份-9" fill="#F6F7F9" x="0" y="0" width="32" height="32" rx="16"></rect>
                    <g id="Discord" transform="translate(9.000000, 8.000000)" fill-rule="nonzero">
                        <path d="M8.54390588,6.728 C8.08790588,6.728 7.72790588,7.12 7.72790588,7.608 C7.72790588,8.096 8.09590588,8.488 8.54390588,8.488 C8.99990588,8.488 9.35990588,8.096 9.35990588,7.608 C9.35990588,7.12 8.99190588,6.728 8.54390588,6.728 Z M5.62390588,6.728 C5.16790588,6.728 4.80790588,7.12 4.80790588,7.608 C4.80790588,8.096 5.17590588,8.488 5.62390588,8.488 C6.07990588,8.488 6.43990588,8.096 6.43990588,7.608 C6.44790588,7.12 6.07990588,6.728 5.62390588,6.728 Z" id="形状" fill="#000000"></path>
                        <path d="M12.4319059,0.0719783529 L1.71192,0.0719783529 C0.80792,0.0719783529 0.0719209412,0.807976471 0.0719209412,1.71197647 L0.0719209412,12.432 C0.0719209412,13.336 0.80792,14.072 1.71192,14.072 L10.7839059,14.072 L10.3599059,12.608 L11.3839059,13.552 L12.3519059,14.44 L14.0799059,15.936 L14.0799059,1.71197647 C14.0719059,0.807976471 13.3359059,0.0719783529 12.4319059,0.0719783529 Z M9.34390588,10.432 C9.34390588,10.432 9.05590588,10.088 8.81590588,9.792 C9.86390588,9.496 10.2639059,8.848 10.2639059,8.848 C9.93590588,9.064 9.62390588,9.216 9.34390588,9.32 C8.94390588,9.488 8.55990588,9.592 8.18390588,9.664 C7.41590588,9.808 6.71190588,9.768 6.11190588,9.656 C5.65590588,9.568 5.26390588,9.448 4.93590588,9.312 C4.75190588,9.24 4.55192,9.152 4.35192,9.04 C4.32792,9.024 4.30392,9.016 4.27992,9 C4.26392,8.992 4.25592,8.984 4.24792,8.984 C4.10392,8.904 4.02392,8.848 4.02392,8.848 C4.02392,8.848 4.40792,9.48 5.42390588,9.784 C5.18390588,10.088 4.88790588,10.44 4.88790588,10.44 C3.11992,10.384 2.44792,9.232 2.44792,9.232 C2.44792,6.68 3.59992,4.60797647 3.59992,4.60797647 C4.75190588,3.75197647 5.83990588,3.77597647 5.83990588,3.77597647 L5.91990588,3.87197647 C4.47992,4.27997647 3.82392,4.912 3.82392,4.912 C3.82392,4.912 3.99992,4.816 4.29592,4.68797647 C5.15190588,4.31197647 5.83190588,4.21597647 6.11190588,4.18397647 C6.15990588,4.17597647 6.19990588,4.16797647 6.24790588,4.16797647 C6.73590588,4.10397647 7.28790588,4.08797647 7.86390588,4.15197647 C8.62390588,4.23997647 9.43990588,4.46397647 10.2719059,4.912 C10.2719059,4.912 9.63990588,4.31197647 8.27990588,3.90397647 L8.39190588,3.77597647 C8.39190588,3.77597647 9.48790588,3.75197647 10.6319059,4.60797647 C10.6319059,4.60797647 11.7839059,6.68 11.7839059,9.232 C11.7839059,9.224 11.1119059,10.376 9.34390588,10.432 Z" id="形状" fill="#242629"></path>
                    </g>
                </g>
            </g>
        </g>
    </g>
</svg>