<?xml version="1.0" encoding="UTF-8"?>
<svg width="32px" height="32px" viewBox="0 0 32 32" version="1.1" xmlns="http://www.w3.org/2000/svg" xmlns:xlink="http://www.w3.org/1999/xlink">
    <title>docs</title>
    <g id="色彩规范" stroke="none" stroke-width="1" fill="none" fill-rule="evenodd">
        <g id="NutBox-icon" transform="translate(-180.000000, -554.000000)">
            <g id="编组-4" transform="translate(100.000000, 512.000000)">
                <g id="编组-7备份" transform="translate(0.000000, 42.000000)">
                    <g id="编组-17" transform="translate(80.000000, 0.000000)">
                        <rect id="矩形备份-8" fill="#F6F7F9" x="0" y="0" width="32" height="32" rx="16"></rect>
                        <g id="docs" transform="translate(8.000000, 8.000000)" fill="#FFDB1B">
                            <path d="M12.5,0.5 C13.6045695,0.5 14.5,1.3954305 14.5,2.5 L14.5,13.5 C14.5,14.6045695 13.6045695,15.5 12.5,15.5 L3.5,15.5 C2.3954305,15.5 1.5,14.6045695 1.5,13.5 L1.5,2.5 C1.5,1.3954305 2.3954305,0.5 3.5,0.5 L12.5,0.5 Z M9.25,7 L4.75,7 C4.33578644,7 4,7.33578644 4,7.75 C4,8.16421356 4.33578644,8.5 4.75,8.5 L4.75,8.5 L9.25,8.5 C9.66421356,8.5 10,8.16421356 10,7.75 C10,7.33578644 9.66421356,7 9.25,7 L9.25,7 Z M11.25,4 L4.75,4 C4.33578644,4 4,4.33578644 4,4.75 C4,5.16421356 4.33578644,5.5 4.75,5.5 L4.75,5.5 L11.25,5.5 C11.6642136,5.5 12,5.16421356 12,4.75 C12,4.33578644 11.6642136,4 11.25,4 L11.25,4 Z" id="形状结合"></path>
                        </g>
                    </g>
                </g>
            </g>
        </g>
    </g>
</svg>