<?xml version="1.0" encoding="UTF-8"?>
<svg width="28px" height="28px" viewBox="0 0 28 28" version="1.1" xmlns="http://www.w3.org/2000/svg" xmlns:xlink="http://www.w3.org/1999/xlink">
    <title>icon/Price/m</title>
    <g id="产品页面" stroke="none" stroke-width="1" fill="none" fill-rule="evenodd">
        <g id="NUTBOX-Staking-LIquidity-Stake-2" transform="translate(-820.000000, -417.000000)">
            <g id="编组-11" transform="translate(594.000000, 193.000000)">
                <g id="icon/Price/m" transform="translate(226.000000, 224.000000)">
                    <rect id="矩形备份-4" stroke="#FFDB26" fill-opacity="0.3" fill="#FFDB26" x="0.5" y="0.5" width="27" height="27" rx="13.5"></rect>
                    <g id="Group-2-Copy-110" transform="translate(6.000000, 6.000000)">
                        <rect id="Path" x="0" y="0" width="16" height="16"></rect>
                    </g>
                    <path d="M14,7.00190304 C14.4142136,7.00190304 14.75,7.33768948 14.75,7.75190304 L14.7498071,18.481903 L18.0128628,15.2196699 C18.2791294,14.9534034 18.6957931,14.9291973 18.9894046,15.1470518 L19.073523,15.2196699 C19.3664162,15.5125631 19.3664162,15.9874369 19.073523,16.2803301 L19.073523,16.2803301 L14.6541056,20.6997475 L14.6239265,20.6682375 C14.4894131,20.8694215 14.2601779,21.001903 14,21.001903 C13.7402536,21.001903 13.5113473,20.8698606 13.3767435,20.6692379 L13.3458944,20.6997475 L8.92647698,16.2803301 C8.63358376,15.9874369 8.63358376,15.5125631 8.92647698,15.2196699 C9.2193702,14.9267767 9.69424393,14.9267767 9.98713715,15.2196699 L13.2498071,18.482903 L13.25,7.75190304 C13.25,7.33768948 13.5857864,7.00190304 14,7.00190304 Z" id="Combined-Shape-Copy-90" fill="#242629"></path>
                </g>
            </g>
        </g>
    </g>
</svg>