<?xml version="1.0" encoding="UTF-8"?>
<svg width="28px" height="28px" viewBox="0 0 28 28" version="1.1" xmlns="http://www.w3.org/2000/svg" xmlns:xlink="http://www.w3.org/1999/xlink">
    <title>icon/refresh/m备份</title>
    <g id="产品页面" stroke="none" stroke-width="1" fill="none" fill-rule="evenodd">
        <g id="NUTBOX-钱包-跨链转账-未登录" transform="translate(-858.000000, -469.000000)">
            <g id="编组-11" transform="translate(594.000000, 245.000000)">
                <g id="icon/refresh/m备份" transform="translate(264.000000, 224.000000)">
                    <g id="Group-2-Copy-83">
                        <rect id="矩形备份-4" stroke="#FFDB26" fill="#FFDB1B" x="0.5" y="0.5" width="27" height="27" rx="13.5"></rect>
                        <rect id="Rectangle-55" x="6" y="6" width="16" height="16"></rect>
                    </g>
                    <path d="M8.99938526,10.5534777 L10.7671522,12.3212446 C11.0600454,12.6141378 11.0600454,13.0890116 10.7671522,13.3819048 C10.474259,13.674798 9.99938526,13.674798 9.70649204,13.3819048 L8.74273917,12.4189338 C8.59355777,12.9183746 8.51342773,13.4476095 8.51342773,13.9955597 C8.51342773,17.0331258 10.9758616,19.4934387 14.0134277,19.4934387 C14.7938623,19.4934387 15.5363313,19.3310291 16.2088258,19.0381469 C16.3107467,18.9903868 16.421882,18.9633942 16.5393219,18.9633942 C16.9535355,18.9633942 17.2893219,19.2991806 17.2893219,19.7133942 C17.2893219,20.0240543 17.100442,20.2905993 16.8312557,20.4044554 L16.8119826,20.41229 C15.9513787,20.7902318 15.0001864,21 14,21 C10.1340068,21 7,17.8659932 7,14 C7,12.8289262 7.28757178,11.7250184 7.79595075,10.7550412 C7.80182396,10.7405066 7.80921184,10.7265181 7.81707252,10.7127257 C7.82590457,10.6984796 7.83374331,10.6838929 7.84163215,10.6693372 C7.86982507,10.6298564 7.90196873,10.590234 7.93872509,10.5534777 C8.23161831,10.2605845 8.70649204,10.2605845 8.99938526,10.5534777 Z M14,7 C17.8659932,7 21,10.1340068 21,14 C21,15.1912092 20.7024542,16.3129228 20.1776306,17.2948729 C20.1428486,17.3763142 20.091336,17.4524568 20.0246321,17.5191607 C19.7317389,17.8120539 19.2568651,17.8120539 18.9639719,17.5191607 L17.1962049,15.7513937 C16.9033117,15.4585005 16.9033117,14.9836267 17.1962049,14.6907335 C17.4890982,14.3978403 17.9639719,14.3978403 18.2568651,14.6907335 L19.2494059,15.6837943 C19.4208332,15.1519096 19.5134277,14.5845878 19.5134277,13.9955597 C19.5134277,10.9579936 17.0509939,8.49555969 14.0134277,8.49555969 C13.2225201,8.49555969 12.4706039,8.6625013 11.790994,8.96306939 C11.6932828,9.01050563 11.5835652,9.03677368 11.4677124,9.03677368 C11.0534988,9.03677368 10.7177124,8.70098724 10.7177124,8.28677368 C10.7177124,7.98333817 10.8979093,7.72198989 11.1571298,7.60390223 C12.0257968,7.21483347 12.9878099,7 14,7 Z" id="Combined-Shape" fill="#242629" fill-rule="nonzero"></path>
                </g>
            </g>
        </g>
    </g>
</svg>