<?xml version="1.0" encoding="UTF-8"?>
<svg width="24px" height="24px" viewBox="0 0 24 24" version="1.1" xmlns="http://www.w3.org/2000/svg" xmlns:xlink="http://www.w3.org/1999/xlink">
    <title>icon/select/Farming</title>
    <g id="色彩规范" stroke="none" stroke-width="1" fill="none" fill-rule="evenodd">
        <g id="NutBox-icon" transform="translate(-168.000000, -362.000000)" fill-rule="nonzero">
            <g id="编组-3" transform="translate(100.000000, 323.000000)">
                <g id="编组" transform="translate(65.000000, 34.000000)">
                    <g id="编组-16" transform="translate(16.763456, 16.763456) rotate(-315.000000) translate(-16.763456, -16.763456) translate(4.763456, 5.763456)">
                        <path d="M12.2895059,0 C13.6702177,-2.53632657e-16 14.7895059,1.11928813 14.7895059,2.5 L14.7892136,10.999 L15.2895059,11 C15.8417906,11 16.2895059,11.4477153 16.2895059,12 L16.2896575,13.8709554 C18.1970011,13.3449161 19.9795759,12.4442102 21.5454628,11.2145702 C22.260917,10.6527473 23.2940358,11.2604992 23.1505487,12.1587927 C22.3038366,17.4595902 17.7132589,21.4099987 12.2895059,21.4099987 C6.86540709,21.4099987 2.27460478,17.4590909 1.42769995,12.1575262 C1.28418227,11.2591157 2.31754981,10.6513709 3.03296751,11.2134353 C4.59893957,12.4437334 6.38189606,13.3448583 8.28980089,13.8710435 L8.28950587,12 C8.28950587,11.4477153 8.73722112,11 9.28950587,11 L9.78921356,10.999 L9.78950587,2.5 C9.78950587,1.11928813 10.908794,2.53632657e-16 12.2895059,0 Z" id="形状结合" fill="#FFDB1B"></path>
                        <path d="M13.8752923,11 C14.4275771,11 14.8752923,11.4477153 14.8752923,12 L14.875444,13.8709554 C16.7827875,13.3449161 18.5653623,12.4442102 20.1312492,11.2145702 C20.8467035,10.6527473 21.8798223,11.2604992 21.7363352,12.1587927 C20.889623,17.4595902 16.2990454,21.4099987 10.8752923,21.4099987 C5.45119352,21.4099987 0.860391215,17.4590909 0.0134863844,12.1575262 C-0.130031288,11.2591157 0.903336248,10.6513709 1.61875395,11.2134353 C3.184726,12.4437334 4.9676825,13.3448583 6.87558733,13.8710435 L6.87529231,12 C6.87529231,11.4477153 7.32300756,11 7.87529231,11 L8.375,10.999 L8.37529231,2.5 C8.37529231,1.11928813 9.49458043,4.06785716e-13 10.8752923,4.06785716e-13 C12.2007757,4.06785716e-13 13.285331,1.03153594 13.3699746,2.33562431 L13.3752923,2.5 L13.3752923,11 L13.8752923,11 Z M8.87511929,16.2933508 C6.89334816,16.0608165 4.98910876,15.4845756 3.23455535,14.600222 L2.82475617,14.3865991 L2.78729231,14.365 L2.89112566,14.5707123 C4.40195855,17.4655078 7.43393208,19.4099987 10.8752923,19.4099987 C14.2121304,19.4099987 17.1640482,17.5818395 18.7173369,14.8319797 L18.8588293,14.5715077 L18.9612923,14.366 L18.5126168,14.6021466 C16.7590638,15.4853321 14.8561952,16.0608891 12.8759744,16.2932937 L12.8752923,13 L8.87529231,13 L8.87511929,16.2933508 Z M11.3752923,2.5 C11.3752923,2.25454011 11.1984171,2.05039163 10.9651679,2.00805567 L10.8752923,2 C10.6298324,2 10.4256839,2.17687516 10.383348,2.41012437 L10.3752923,2.5 L10.3752923,11 L11.3752923,11 L11.3752923,2.5 Z" id="形状结合" fill="#242629"></path>
                    </g>
                </g>
            </g>
        </g>
    </g>
</svg>