<?xml version="1.0" encoding="UTF-8"?>
<svg width="32px" height="32px" viewBox="0 0 32 32" version="1.1" xmlns="http://www.w3.org/2000/svg" xmlns:xlink="http://www.w3.org/1999/xlink">
    <title>GitHub</title>
    <g id="色彩规范" stroke="none" stroke-width="1" fill="none" fill-rule="evenodd">
        <g id="NutBox-icon" transform="translate(-140.000000, -512.000000)">
            <g id="编组-4" transform="translate(100.000000, 512.000000)">
                <g id="GitHub" transform="translate(40.000000, 0.000000)">
                    <rect id="矩形备份-7" fill="#F6F7F9" x="0" y="0" width="32" height="32" rx="16"></rect>
                    <g id="Logo-GitHub" transform="translate(8.000000, 8.000000)" fill="#242629" fill-rule="nonzero">
                        <path d="M16.3417379,8.17307692 C16.3573512,9.90132383 15.8082957,11.5874159 14.7780228,12.9750826 C13.7856997,14.3613526 12.3775757,15.3954756 10.7578746,15.9274701 C10.6136065,15.9677027 10.4588611,15.9397625 10.3377721,15.8516182 C10.2502723,15.7684587 10.2033969,15.6512702 10.2094074,15.5307066 L10.2094074,13.2901595 C10.2565711,12.7293266 10.0537168,12.1762819 9.65510541,11.7789573 C10.0209063,11.7430963 10.3836169,11.6806945 10.7403704,11.592245 C11.090536,11.4983156 11.4262229,11.3569738 11.738114,11.1721425 C12.0649185,10.9938945 12.3557578,10.7564747 12.5958234,10.4719715 C12.8594901,10.1388573 13.0574905,9.75869662 13.1792991,9.35169801 C13.334119,8.83117749 13.4088806,8.29013959 13.4010199,7.7471396 C13.4192341,6.93464938 13.1150588,6.14798903 12.5549801,5.55910541 C12.8182067,4.85363823 12.7888001,4.0722624 12.4732934,3.3885755 C12.18225,3.33550847 11.8818708,3.37637638 11.615584,3.50527066 C11.274189,3.62802603 10.9458308,3.78438709 10.6353447,3.97205128 L10.2327464,4.22294587 C8.8969109,3.84950894 7.48425149,3.84950894 6.14841595,4.22294587 C6.0317208,4.14125926 5.88585185,4.05373789 5.6991396,3.93704274 C5.40849395,3.76762661 5.10399374,3.6231842 4.78891738,3.50527066 C4.50640723,3.36181783 4.18595403,3.31079025 3.8728604,3.35940171 C3.55826286,4.04979226 3.53097588,4.83691684 3.79700855,5.5474359 C3.24474694,6.14550191 2.94387812,6.93319317 2.95680342,7.7471396 C2.94848388,8.28633738 3.02326763,8.82359955 3.17852422,9.34002849 C3.30513153,9.74506285 3.50269349,10.1243818 3.762,10.460302 C3.99674705,10.753218 4.2885504,10.9953949 4.6197094,11.1721425 C4.93569405,11.3487198 5.27033071,11.4896195 5.61745299,11.592245 C5.97609438,11.6810962 6.34077416,11.7435013 6.70855271,11.7789573 C6.40315849,12.0665535 6.21592833,12.4576565 6.1834245,12.8758917 C6.02992754,12.9489669 5.86689495,13.0000374 5.6991396,13.0275954 C5.50678185,13.0637714 5.31138977,13.0813567 5.11566382,13.0801083 C4.84760819,13.0818213 4.58598847,12.9980212 4.36881481,12.8408832 C4.12699806,12.6656186 3.92760511,12.4383106 3.78533903,12.1757208 C3.65658003,11.9557771 3.4813453,11.7666033 3.27188034,11.6214188 C3.11578299,11.501561 2.9372123,11.4142597 2.74675214,11.3646895 L2.53670085,11.3646895 C2.43149681,11.3585985 2.3261778,11.3744957 2.22745869,11.4113675 C2.16911111,11.4463761 2.15160684,11.4872194 2.17494587,11.5338974 C2.20256759,11.5860063 2.23583078,11.6349228 2.27413675,11.6797664 C2.31639896,11.7288908 2.36329344,11.7738313 2.41417094,11.8139658 L2.49002279,11.8606439 C2.67315033,11.9591448 2.83247797,12.0965649 2.95680342,12.2632422 C3.08702763,12.4294272 3.1985599,12.6094443 3.28938462,12.8000399 L3.39441026,13.0450997 C3.47719478,13.3082969 3.64045161,13.5388972 3.86119088,13.7044274 C4.07114764,13.8566086 4.31229299,13.9602413 4.56719658,14.0078348 C4.80897959,14.0584381 5.05535443,14.0838577 5.30237607,14.0836866 C5.49769084,14.0872646 5.6929403,14.0735971 5.88585185,14.0428433 L6.13091168,14.002 L6.13091168,15.5307066 C6.13315928,15.6529587 6.08203271,15.7701237 5.99087749,15.8516182 C5.86731944,15.9391683 5.71112597,15.9669835 5.56494017,15.9274701 C3.95025817,15.3886574 2.54992437,14.3481174 1.56813105,12.9575783 C0.532552853,11.5793357 -0.0173223856,9.89688159 0.00441595433,8.17307692 C-0.0041049525,6.73773296 0.374861476,5.32668775 1.10135043,4.08874644 C1.81484864,2.84583052 2.84583052,1.81484864 4.08874644,1.10135043 C5.32668775,0.374861476 6.73773296,-0.0041049525 8.17307692,0.00427536911 C9.60842088,-0.0041049525 11.0194661,0.374861476 12.2574074,1.10135043 C13.5003233,1.81484864 14.5313052,2.84583052 15.2448034,4.08874644 C15.9718306,5.32646232 16.3508376,6.7376584 16.3417379,8.17307692 Z" id="路径"></path>
                    </g>
                </g>
            </g>
        </g>
    </g>
</svg>