<?xml version="1.0" encoding="UTF-8"?>
<svg width="32px" height="32px" viewBox="0 0 32 32" version="1.1" xmlns="http://www.w3.org/2000/svg" xmlns:xlink="http://www.w3.org/1999/xlink">
    <title>just swap</title>
    <g id="色彩规范" stroke="none" stroke-width="1" fill="none" fill-rule="evenodd">
        <g id="NutBox-icon" transform="translate(-100.000000, -512.000000)">
            <g id="just-swap" transform="translate(100.000000, 512.000000)">
                <rect id="矩形" fill="#F6F7F9" x="0" y="0" width="32" height="32" rx="16"></rect>
                <g id="Group" stroke-linecap="round" transform="translate(12.000000, 8.000000)" fill="#242629" fill-rule="nonzero">
                    <path d="M1.6224394,6.87397195 L1.67605773,6.92312749 L3.67729608,8.89788388 C4.93216396,10.1361463 4.95886325,12.1326108 3.75739404,13.4031371 L3.6772961,13.4849531 L1.67605774,15.4597095 C1.29315819,15.8375422 0.676462822,15.8334347 0.298614491,15.4505508 C-0.0620284187,15.0850402 -0.0746794316,14.5065204 0.257939004,14.1260663 L0.307804399,14.0731075 L2.30904275,12.0983512 C2.79858628,11.6152856 2.81741489,10.8486579 2.36552855,10.3437799 L2.30904276,10.2844859 L0.307804389,8.30972945 C-0.0750951676,7.93189672 -0.0792026438,7.31520135 0.298614481,6.9322862 C0.659288596,6.56680677 1.23758848,6.5464508 1.6224394,6.87397195 Z M5.58993958,0.239486574 C5.9747905,-0.0880345725 6.55309039,-0.0676786002 6.9137645,0.297800831 C7.29158162,0.680715995 7.28747414,1.29741136 6.90457458,1.67524408 L6.90457458,1.67524408 L4.9033362,3.65000045 L4.84685041,3.70929451 C4.39496409,4.21417248 4.41379268,4.98080028 4.90333619,5.46386573 L4.90333619,5.46386573 L6.9045746,7.43862217 L6.95443999,7.49158098 C7.28705843,7.87203507 7.27440741,8.45055479 6.91376451,8.81606542 C6.53591617,9.19894938 5.91922081,9.20305685 5.53632125,8.82522413 L5.53632125,8.82522413 L3.53508287,6.8504677 L3.45498492,6.76865175 C2.25351571,5.49812548 2.28021503,3.50166091 3.53508287,2.26339849 L3.53508287,2.26339849 L5.53632125,0.288642115 Z" id="形状结合"></path>
                </g>
            </g>
        </g>
    </g>
</svg>