<?xml version="1.0" encoding="UTF-8"?>
<svg width="16px" height="16px" viewBox="0 0 16 16" version="1.1" xmlns="http://www.w3.org/2000/svg" xmlns:xlink="http://www.w3.org/1999/xlink">
    <title>icon/earth/m</title>
    <g id="色彩规范" stroke="none" stroke-width="1" fill="none" fill-rule="evenodd">
        <g id="NutBox-icon" transform="translate(-126.000000, -223.000000)">
            <g id="icon/earth/m" transform="translate(126.000000, 223.000000)">
                <g id="Group-2-Copy-83">
                    <rect id="Rectangle-55" x="0" y="0" width="16" height="16"></rect>
                </g>
                <path d="M8,1 C11.8659932,1 15,4.13400675 15,8 C15,11.8659932 11.8659932,15 8,15 C4.13400675,15 1,11.8659932 1,8 C1,4.13400675 4.13400675,1 8,1 Z M9.17621719,11.0011837 L6.82378281,11.0011837 C6.94072605,11.5028506 7.08671741,11.9606157 7.2573972,12.3588685 C7.45967162,12.8308422 7.68152583,13.1805663 7.88591783,13.3822842 L8,13.489 L8.11408217,13.3822842 C8.31847417,13.1805663 8.54032838,12.8308422 8.7426028,12.3588685 C8.91328259,11.9606157 9.05927395,11.5028506 9.17621719,11.0011837 Z M12.6370454,11.0007124 L10.7111397,11.0007918 C10.5462523,11.8104199 10.3167146,12.5344805 10.0380944,13.1366488 C11.1110007,12.7113245 12.0186844,11.9582059 12.6370454,11.0007124 Z M5.2888603,11.0007918 L3.38981003,11.0007124 C4.00187244,11.9484528 4.89739338,12.6959607 5.95644925,13.1233126 C5.6799819,12.5240449 5.45255994,11.8045879 5.2888603,11.0007918 Z M13.2997318,6.49751345 L13.25,6.5 L13.25,6.5 L10.930962,6.50000536 C10.9761768,6.9832377 11,7.48512727 11,8 C11,8.51522855 10.9761438,9.01745599 10.9308683,9.50099648 L13.25,9.5 L13.3110989,9.50414219 C13.4429378,9.03227714 13.5134277,8.53480748 13.5134277,8.02087402 C13.5134277,7.49236246 13.4388821,6.98126195 13.2997318,6.49751345 Z M2.51342773,8.02087402 C2.51342773,8.53408819 2.58372046,9.03088461 2.71520342,9.5021608 L2.75,9.5 L2.75,9.5 L5.06913174,9.50099648 C5.02385617,9.01745599 5,8.51522855 5,8 C5,7.48512727 5.02382324,6.9832377 5.06903797,6.50000536 L2.75,6.5 L2.72683403,6.4985206 C2.58786992,6.98197133 2.51342773,7.49272923 2.51342773,8.02087402 Z M9.42361561,6.49986813 L6.57638439,6.49986813 C6.52634186,6.98202634 6.5,7.48522264 6.5,8 C6.5,8.51513534 6.52637851,9.01867352 6.57648882,9.50113773 L9.42351118,9.50113773 C9.47362149,9.01867352 9.5,8.51513534 9.5,8 C9.5,7.48522264 9.47365814,6.98202634 9.42361561,6.49986813 Z M5.93290733,2.92685702 L5.92084302,2.93294923 C4.89252114,3.3563384 4.02073763,4.08240573 3.41643013,5.00021359 L5.28865619,5.00021061 C5.44780418,4.21844285 5.66722514,3.51642695 5.93290733,2.92685702 Z M8.01,2.52 L7.99,2.521 L7.88591783,2.61771584 C7.68152583,2.81943373 7.45967162,3.16915783 7.2573972,3.64113148 C7.08660571,4.03964495 6.94053497,4.49774856 6.82355324,4.99980134 L9.17644676,4.99980134 C9.05946503,4.49774856 8.91339429,4.03964495 8.7426028,3.64113148 C8.54032838,3.16915783 8.31847417,2.81943373 8.11408217,2.61771584 L8.01,2.52 Z M10.0614853,2.91484479 L10.0812287,2.95843023 C10.3405631,3.54143093 10.5550272,4.23235106 10.7113438,5.00021061 L12.6104253,5.00021359 C11.9974145,4.06918735 11.1091678,3.33546434 10.0614853,2.91484479 Z" id="形状结合" fill="#242629" fill-rule="nonzero"></path>
            </g>
        </g>
    </g>
</svg>