<?xml version="1.0" encoding="UTF-8"?>
<svg width="25px" height="25px" viewBox="0 0 25 25" version="1.1" xmlns="http://www.w3.org/2000/svg" xmlns:xlink="http://www.w3.org/1999/xlink">
    <title>icon/l/share</title>
    <g id="产品页面" stroke="none" stroke-width="1" fill="none" fill-rule="evenodd">
        <g id="NUTBOX-Staking弹窗默认状态" transform="translate(-743.000000, -579.000000)">
            <g id="编组-15" transform="translate(474.000000, 283.000000)">
                <g id="编组-14" transform="translate(199.000000, 296.000000)">
                    <g id="icon/share/l" transform="translate(70.500000, 0.000000)">
                        <rect id="Rectangle-55" x="0" y="0" width="24" height="24"></rect>
                        <g id="Group-2" transform="translate(4.000000, 1.000000)" fill="#242629" fill-rule="nonzero">
                            <path d="M8.70264069,0.707106781 L12.2381746,4.24264069 C12.6286989,4.63316498 12.6286989,5.26632996 12.2381746,5.65685425 C11.8476503,6.04737854 11.2144853,6.04737854 10.823961,5.65685425 L7.99553391,2.82842712 L5.16710678,5.65685425 C4.77658249,6.04737854 4.14341751,6.04737854 3.75289322,5.65685425 C3.36236893,5.26632996 3.36236893,4.63316498 3.75289322,4.24264069 L7.28842712,0.707106781 C7.67895142,0.316582489 8.3121164,0.316582489 8.70264069,0.707106781 Z" id="Combined-Shape"></path>
                            <path d="M15,8 C15.5522847,8 16,8.44771525 16,9 L16,10 L16,10 L16,18.2563687 C15.9999675,18.6503951 15.7532085,18.9972193 15.3912301,19.1310599 L15.2793116,19.1646568 L15.2793116,19.1646568 C12.9373781,19.7114397 10.5011848,20.0000074 8,20.0000074 C5.72571046,20.0000074 3.50515583,19.7614199 1.36033997,19.3070638 L0.719189373,19.1643067 L0.719189373,19.1643067 C0.297967381,19.0659404 5.68515811e-06,18.6903801 9.34363698e-13,18.2578251 L6.82121026e-13,9 C6.82053391e-13,8.44771525 0.44771525,8 1,8 C1.55228475,8 2,8.44771525 2,9 L2,17.3924466 C3.96062285,17.7919419 5.96694653,17.9950691 8,17.9950691 C10.0330535,17.9950691 12.0393771,17.7919419 14,17.392447 L14.0001468,10.0173091 C14.0000491,10.0115512 14,10.0057813 14,10 L14,9 C14,8.44771525 14.4477153,8 15,8 Z" id="Combined-Shape"></path>
                            <rect id="Rectangle-4" x="7" y="2" width="2" height="11" rx="1"></rect>
                        </g>
                    </g>
                </g>
            </g>
        </g>
    </g>
</svg>