<?xml version="1.0" encoding="UTF-8"?>
<svg width="24px" height="24px" viewBox="0 0 24 24" version="1.1" xmlns="http://www.w3.org/2000/svg" xmlns:xlink="http://www.w3.org/1999/xlink">
    <title>icon/report/l</title>
    <g id="产品页面" stroke="none" stroke-width="1" fill="none" fill-rule="evenodd">
        <g id="NUTBOX-tronlink钱包解锁提示-" transform="translate(-551.000000, -416.000000)">
            <g id="编组-22" transform="translate(515.000000, 100.000000)">
                <g id="编组-15备份" transform="translate(0.000000, 292.000000)">
                    <g id="icon/report/l" transform="translate(36.000000, 24.000000)">
                        <rect id="Rectangle-7" x="0" y="0" width="24" height="24"></rect>
                        <path d="M12,2 C17.5228475,2 22,6.4771525 22,12 C22,17.5228475 17.5228475,22 12,22 C6.4771525,22 2,17.5228475 2,12 C2,6.4771525 6.4771525,2 12,2 Z M12,4 C7.581722,4 4,7.581722 4,12 C4,16.418278 7.581722,20 12,20 C16.418278,20 20,16.418278 20,12 C20,7.581722 16.418278,4 12,4 Z M12,10 C12.5522847,10 13,10.4477153 13,11 L13,11 L13,16 L12.9932723,16.1166211 C12.9355072,16.6139598 12.5128358,17 12,17 C11.4477153,17 11,16.5522847 11,16 L11,16 L11,11 L11.0067277,10.8833789 C11.0644928,10.3860402 11.4871642,10 12,10 Z M12,7 C12.5522847,7 13,7.44771525 13,8 C13,8.55228475 12.5522847,9 12,9 C11.4477153,9 11,8.55228475 11,8 C11,7.44771525 11.4477153,7 12,7 Z" id="形状结合" fill="#408FFF" fill-rule="nonzero"></path>
                    </g>
                </g>
            </g>
        </g>
    </g>
</svg>