<?xml version="1.0" encoding="UTF-8"?>
<svg width="16px" height="16px" viewBox="0 0 16 16" version="1.1" xmlns="http://www.w3.org/2000/svg" xmlns:xlink="http://www.w3.org/1999/xlink">
    <title>icon/link/m备份</title>
    <defs>
        <rect id="path-1" x="0" y="0" width="16" height="16"></rect>
    </defs>
    <g id="色彩规范" stroke="none" stroke-width="1" fill="none" fill-rule="evenodd">
        <g id="NutBox-icon" transform="translate(-100.000000, -223.000000)">
            <g id="形状结合" transform="translate(100.000000, 223.000000)">
                <mask id="mask-2" fill="white">
                    <use xlink:href="#path-1"></use>
                </mask>
                <g id="蒙版"></g>
                <path d="M11.25,8.5 C11.5764183,8.5 11.8541324,8.70852758 11.9571945,8.999635 L12,9 L12,11.4285714 C12,13.9533017 10.209139,16 8,16 C5.790861,16 4,13.9533017 4,11.4285714 L4,9 L4.04280554,8.999635 C4.14586763,8.70852758 4.4235817,8.5 4.75,8.5 C5.0764183,8.5 5.35413237,8.70852758 5.45719446,8.999635 L5.5,9 L5.5,11.5454545 C5.5,13.1772049 6.61928813,14.5 8,14.5 C9.3254834,14.5 10.4100387,13.2809121 10.4946823,11.7397167 L10.5,11.5454545 L10.5,9 L10.5428055,8.999635 C10.6458676,8.70852758 10.9235817,8.5 11.25,8.5 Z M8,5 C8.41421356,5 8.75,5.33578644 8.75,5.75 L8.75,10.25 C8.75,10.6642136 8.41421356,11 8,11 C7.58578644,11 7.25,10.6642136 7.25,10.25 L7.25,5.75 C7.25,5.33578644 7.58578644,5 8,5 Z M8,0 C10.209139,0 12,2.04669829 12,4.57142857 L12,6.75 C12,7.16421356 11.6642136,7.5 11.25,7.5 C10.8357864,7.5 10.5,7.16421356 10.5,6.75 L10.5,4.45454545 C10.5,2.82279506 9.38071187,1.5 8,1.5 C6.6745166,1.5 5.58996133,2.71908792 5.50531768,4.26028328 L5.5,4.45454545 L5.5,6.75 C5.5,7.16421356 5.16421356,7.5 4.75,7.5 C4.33578644,7.5 4,7.16421356 4,6.75 L4,4.57142857 C4,2.04669829 5.790861,0 8,0 Z" fill="#242629" fill-rule="nonzero" mask="url(#mask-2)" transform="translate(8.000000, 8.000000) rotate(-315.000000) translate(-8.000000, -8.000000) "></path>
            </g>
        </g>
    </g>
</svg>