<?xml version="1.0" encoding="UTF-8"?>
<svg width="24px" height="24px" viewBox="0 0 24 24" version="1.1" xmlns="http://www.w3.org/2000/svg" xmlns:xlink="http://www.w3.org/1999/xlink">
    <title>icon/ticket/l备份</title>
    <g id="色彩规范" stroke="none" stroke-width="1" fill="none" fill-rule="evenodd">
        <g id="NutBox-icon" transform="translate(-304.000000, -362.000000)" fill-rule="nonzero">
            <g id="编组-3" transform="translate(100.000000, 323.000000)">
                <g id="icon/ticket/l备份" transform="translate(204.000000, 39.000000)">
                    <path d="M4.5,4.5 L21.5,4.5 C22.0522847,4.5 22.5,4.94771525 22.5,5.5 L22.5,20.5 C22.5,21.0522847 22.0522847,21.5 21.5,21.5 L4.5,21.5 C3.94771525,21.5 3.5,21.0522847 3.5,20.5 L3.5,5.5 C3.5,4.94771525 3.94771525,4.5 4.5,4.5 Z" id="Rectangle" fill="#FFDB1B"></path>
                    <path d="M19.5,12.5 L19.5,5.5 L4.5,5.5 L4.5,18.5 L12,18.5 C12.5522847,18.5 13,18.9477153 13,19.5 C13,20.0522847 12.5522847,20.5 12,20.5 L3.5,20.5 C2.94771525,20.5 2.5,20.0522847 2.5,19.5 L2.5,4.5 C2.5,3.94771525 2.94771525,3.5 3.5,3.5 L20.5,3.5 C21.0522847,3.5 21.5,3.94771525 21.5,4.5 L21.4998557,11.4828385 C21.4999518,11.4885475 21.5,11.4942681 21.5,11.5 L21.5,12.5 C21.5,13.0522847 21.0522847,13.5 20.5,13.5 C19.9477153,13.5 19.5,13.0522847 19.5,12.5 L19.5,12.5 Z M21.1585414,14.747437 C21.5741781,15.1111191 21.6162956,15.7428817 21.2526135,16.1585183 L17.7526135,20.1585183 C17.4002184,20.5612556 16.7932194,20.6151846 16.3753418,20.2808825 L13.8753418,18.2808825 C13.4440798,17.935873 13.3741585,17.3065806 13.719168,16.8753187 C14.0641776,16.4440567 14.6934699,16.3741353 15.1247319,16.7191449 L16.8775536,18.1214023 L19.7474601,14.8415091 C20.1111422,14.4258725 20.7429048,14.383755 21.1585414,14.747437 Z M15,13 C15.5522847,13 16,13.4477153 16,14 C16,14.5522847 15.5522847,15 15,15 L9,15 C8.44771525,15 8,14.5522847 8,14 C8,13.4477153 8.44771525,13 9,13 L15,13 Z M15,9 C15.5522847,9 16,9.44771525 16,10 C16,10.5522847 15.5522847,11 15,11 L9,11 C8.44771525,11 8,10.5522847 8,10 C8,9.44771525 8.44771525,9 9,9 L15,9 Z" id="形状结合" fill="#242629"></path>
                </g>
            </g>
        </g>
    </g>
</svg>