<?xml version="1.0" standalone="no"?><!DOCTYPE svg PUBLIC "-//W3C//DTD SVG 1.1//EN" "http://www.w3.org/Graphics/SVG/1.1/DTD/svg11.dtd"><svg t="1601255578191" class="icon" viewBox="0 0 1024 1024" version="1.1" xmlns="http://www.w3.org/2000/svg" p-id="6136" width="32" height="32" xmlns:xlink="http://www.w3.org/1999/xlink"><defs><style type="text/css"></style></defs><path d="M887.488 609.088c8.384-32.576 11.008-110.208 8.384-145.28-18.688-253.504-306.752-377.92-511.104-326.016 153.856 53.376 310.336 198.784 311.488 371.008 0.128 21.184-1.536 41.92-4.672 62.272L526.4 553.664l107.072 124.16 107.008 124.224 138.176-88.256 138.176-88.128L887.488 609.088z" p-id="6137" fill="#fc0970"></path><path d="M136.128 422.144C126.848 454.4 122.368 532.032 124.032 567.104c12.224 253.952 297.088 385.536 502.656 338.88-152.512-57.344-305.216-206.592-302.016-378.752 0.448-21.184 2.624-41.92 6.272-62.08l164.672 21.376-103.808-126.72L288 232.896 147.648 317.504 7.232 402.24 136.128 422.144z" p-id="6138" fill="#fc0970"></path></svg>