<?xml version="1.0" encoding="UTF-8"?>
<svg width="24px" height="24px" viewBox="0 0 24 24" version="1.1" xmlns="http://www.w3.org/2000/svg" xmlns:xlink="http://www.w3.org/1999/xlink">
    <title>icon/select/Staking Mint</title>
    <g id="色彩规范" stroke="none" stroke-width="1" fill="none" fill-rule="evenodd">
        <g id="NutBox-icon" transform="translate(-134.000000, -362.000000)">
            <g id="编组-3" transform="translate(100.000000, 323.000000)">
                <g id="icon/l/harvest" transform="translate(32.000000, 38.000000)">
                    <g id="编组-11" transform="translate(0.500000, 0.500000)">
                        <g id="编组-15" transform="translate(13.707107, 13.707107) rotate(45.000000) translate(-13.707107, -13.707107) translate(5.707107, 2.707107)">
                            <g id="编组-14" transform="translate(1.000000, 0.000000)" fill="#FFDB1B" fill-rule="nonzero">
                                <path d="M10.9142136,0.5 C12.2949254,0.5 13.4142136,1.61928813 13.4142136,3 C13.4142136,4.38071187 12.2949254,5.5 10.9142136,5.5 L9.91321356,5.5 L9.91321356,9 L14.4142136,9 L14.4150943,15.5194498 C14.4150943,16.0072585 14.2981887,16.4923199 14.0650998,16.9746005 C13.8313054,17.4582632 13.526091,17.9252748 13.1480963,18.3791155 C12.7700847,18.8322401 12.338189,19.2617869 11.853098,19.6663239 C11.3673015,20.0715935 10.8751894,20.4324381 10.3760898,20.7488577 C9.87628475,21.0659934 9.39119369,21.3296792 8.92009436,21.5392325 C8.44899502,21.7488025 8.03599575,21.892451 7.68107975,21.9708607 L7.51309514,22 L7.35908545,21.9708607 C6.99509918,21.8924676 6.57299606,21.7488025 6.0921042,21.5392658 C5.61117874,21.3296792 5.11209597,21.0659934 4.59408322,20.7488744 C4.07607047,20.4324214 3.56790064,20.0715935 3.0680956,19.6663239 C2.56897923,19.2617703 2.12309186,18.8322401 1.73107177,18.3791155 C1.33908528,17.9252748 1.02197883,17.4582798 0.779786039,16.9746005 C0.536182313,16.4923199 0.415094314,16.0072585 0.415094314,15.5194165 L0.414213562,9 L4.91321356,9 L4.91321356,5.499 L3.91421356,5.5 C2.53350169,5.5 1.41421356,4.38071187 1.41421356,3 C1.41421356,1.61928813 2.53350169,0.5 3.91421356,0.5 L10.9142136,0.5 Z" id="形状结合"></path>
                            </g>
                            <path d="M10.5,0.5 C11.8807119,0.5 13,1.61928813 13,3 C13,4.38071187 11.8807119,5.5 10.5,5.5 L9.499,5.5 L9.5,13.5 C9.5,14.8807119 8.38071187,16 7,16 C5.61928813,16 4.5,14.8807119 4.5,13.5 L4.499,11 L1.999,11 L2.00088075,15.5194165 C2.00088075,15.6530915 2.02936157,15.7935814 2.09631729,15.9544472 L2.15390429,16.0791289 C2.31874689,16.4083334 2.54232601,16.738224 2.82937233,17.0705663 C3.14358753,17.4337585 3.50474478,17.7815114 3.91352769,18.1128462 C4.34681655,18.4641808 4.78272109,18.7734859 5.22410153,19.0431254 C5.66786892,19.3147925 6.08563592,19.5352912 6.47679592,19.7057581 C6.63408879,19.7742946 6.77906981,19.8322238 6.90701056,19.8790312 L7.097,19.944 L7.21012917,19.9067525 C7.3057545,19.8728328 7.40939437,19.8327138 7.5206023,19.7862752 L7.69303441,19.7118626 C8.06966659,19.54433 8.46893462,19.327517 8.89099135,19.0597143 C9.31471884,18.7910791 9.73681084,18.4816828 10.1579656,18.1303399 C10.5514523,17.8021955 10.8980221,17.4576604 11.1970975,17.0991579 C11.4738061,16.7669269 11.6895797,16.4365225 11.8501688,16.1043037 C11.9343531,15.9301192 11.9802982,15.7743226 11.9953088,15.6279103 L12.0008808,15.51972 L12,11 C11.4477153,11 11,10.5522847 11,10 C11,9.44771525 11.4477153,9 12,9 L14,9 L14.0008808,15.5194498 C14.0008808,16.0072585 13.8839752,16.4923199 13.6508862,16.9746005 C13.4170918,17.4582632 13.1118775,17.9252748 12.7338827,18.3791155 C12.3558711,18.8322401 11.9239755,19.2617869 11.4388844,19.6663239 C10.9530879,20.0715935 10.4609758,20.4324381 9.96187622,20.7488577 C9.46207119,21.0659934 8.97698013,21.3296792 8.50588079,21.5392325 C8.03478146,21.7488025 7.62178219,21.892451 7.26686619,21.9708607 L7.09888157,22 L6.94487188,21.9708607 C6.58088562,21.8924676 6.1587825,21.7488025 5.67789064,21.5392658 C5.19696518,21.3296792 4.69788241,21.0659934 4.17986966,20.7488744 C3.66185691,20.4324214 3.15368707,20.0715935 2.65388204,19.6663239 C2.15476567,19.2617703 1.7088783,18.8322401 1.31685821,18.3791155 C0.924871715,17.9252748 0.607765272,17.4582798 0.365572477,16.9746005 C0.121968751,16.4923199 0.000880751541,16.0072585 0.000880751541,15.5194165 L7.27506944e-12,9 L4.498,9 L4.499,5.499 L3.5,5.5 C2.11928813,5.5 1,4.38071187 1,3 C1,1.61928813 2.11928813,0.5 3.5,0.5 L10.5,0.5 Z M10.5,2.5 L3.5,2.5 C3.22385763,2.5 3,2.72385763 3,3 C3,3.24545989 3.17687516,3.44960837 3.4087183,3.49194503 L3.497998,3.5 L6.4987498,3.49699725 L6.5,13.5 C6.5,13.7761424 6.72385763,14 7,14 C7.24545989,14 7.44960837,13.8231248 7.49194434,13.5900512 L7.5,13.50025 L7.49874998,3.5 L10.5,3.5 C10.7761424,3.5 11,3.27614237 11,3 C11,2.75454011 10.8231248,2.55039163 10.5898756,2.50805567 L10.5,2.5 Z" id="形状结合" fill="#242629"></path>
                        </g>
                    </g>
                </g>
            </g>
        </g>
    </g>
</svg>