<?xml version="1.0" encoding="UTF-8"?>
<svg width="24px" height="24px" viewBox="0 0 24 24" version="1.1" xmlns="http://www.w3.org/2000/svg" xmlns:xlink="http://www.w3.org/1999/xlink">
    <title>icon/history/l</title>
    <g id="色彩规范" stroke="none" stroke-width="1" fill="none" fill-rule="evenodd">
        <g id="NutBox-icon" transform="translate(-202.000000, -362.000000)">
            <g id="编组-3" transform="translate(100.000000, 323.000000)">
                <g id="Group-11" transform="translate(102.000000, 39.000000)">
                    <rect id="Rectangle-55" x="0" y="0" width="24" height="24"></rect>
                    <rect id="矩形" fill="#FFDB1B" x="3" y="3" width="20" height="20" rx="2"></rect>
                    <path d="M6,13 C7.65685425,13 9,14.3431458 9,16 C9.55228475,16 10,16.4477153 10,17 L10,21 C10,21.5522847 9.55228475,22 9,22 L3,22 C2.44771525,22 2,21.5522847 2,21 L2,17 C2,16.4477153 2.44771525,16 3,16 C3,14.3431458 4.34314575,13 6,13 Z M11.2928932,21.7071068 L11.242208,21.652566 L11.242208,21.652566 L11.224,21.628833 L11.22,21.624833 L11.1963346,21.5953066 L11.1963346,21.5953066 C11.1784901,21.5711307 11.1617187,21.546275 11.1460674,21.5206602 L11.1246712,21.4840621 L11.1246712,21.4840621 C11.1123927,21.4617672 11.1007528,21.438725 11.0899989,21.4151932 L11.0712255,21.371336 L11.0712255,21.371336 C11.0633157,21.3515792 11.0561225,21.3317977 11.0495467,21.3117364 C11.0447287,21.2968513 11.0400977,21.2814633 11.0358451,21.265993 C11.0298336,21.2444365 11.0246398,21.2227461 11.0201652,21.2007941 C11.0167022,21.1833753 11.0136281,21.165949 11.0110178,21.1484669 C11.008101,21.1294204 11.005748,21.1096949 11.0039775,21.0898018 C11.001895,21.0659949 11.0006349,21.042681 11.0001861,21.0193545 L11.0001675,20.9816379 C11.0005993,20.9579802 11.0018656,20.9343349 11.0039664,20.9107499 L11,21 C11,20.9465869 11.0041877,20.8941518 11.0122526,20.8430053 C11.0145772,20.8287335 11.0172421,20.8139767 11.0202401,20.7992742 C11.0246398,20.7772539 11.0298336,20.7555635 11.035721,20.7341604 L11.0497381,20.6878575 L11.0497381,20.6878575 C11.0561225,20.6682023 11.0633157,20.6484208 11.071104,20.6289415 C11.0781964,20.6112044 11.085679,20.5939015 11.0936734,20.5767785 C11.1033766,20.5561086 11.1137939,20.5357061 11.1248758,20.515723 C11.1314988,20.5036056 11.1386069,20.4913869 11.1459955,20.4792912 C11.1617187,20.453725 11.1784901,20.4288693 11.1963135,20.4048407 C11.2017534,20.397397 11.2072845,20.3901576 11.2129277,20.3829777 C11.2376688,20.3515341 11.2644269,20.3213595 11.2928932,20.2928932 L13.4142136,18.1715729 C13.8047379,17.7810486 14.4379028,17.7810486 14.8284271,18.1715729 C15.2189514,18.5620972 15.2189514,19.1952621 14.8284271,19.5857864 L14.413,20 L20,20 L20,12 C20,11.4477153 20.4477153,11 21,11 C21.5128358,11 21.9355072,11.3860402 21.9932723,11.8833789 L22,12 L22,20 C22,21.1045695 21.1045695,22 20,22 L12,22 C11.9163537,22 11.8351061,21.98973 11.7574493,21.9703822 C11.7436031,21.9668841 11.7298771,21.9631527 11.7162192,21.9591235 C11.6899731,21.951405 11.664301,21.9426483 11.639122,21.9329015 L11.6013209,21.9174043 L11.6013209,21.9174043 C11.5734,21.9051949 11.5467064,21.8920945 11.5207136,21.8778732 C11.5122547,21.8733478 11.5035683,21.8684327 11.4949412,21.8633772 C11.4655829,21.8460589 11.4371691,21.8273829 11.4098115,21.80735 C11.4029287,21.8024005 11.3960121,21.7971936 11.3891486,21.7918851 L11.2955193,21.7097315 L11.2955193,21.7097315 L11.266,21.676833 L11.2928932,21.7071068 Z M8,18 L4,18 L4,20 L8,20 L8,18 Z M6,15 C5.44771525,15 5,15.4477153 5,16 L7,16 C7,15.4477153 6.55228475,15 6,15 Z M21.730127,2.5 C21.9865449,2.94412886 21.86356,3.50319306 21.4617346,3.80188845 L21.3641016,3.8660254 L21.1206813,4.00720772 C21.6160593,4.06679533 22,4.48856058 22,5 C22,5.55228475 21.5522847,6 21,6 L19,6 L19,6.99983302 L21,7 C21.5522847,7 22,7.44771525 22,8 C22,8.55228475 21.5522847,9 21,9 L19,8.99983302 L19,10 C19,10.5522847 18.5522847,11 18,11 C17.4477153,11 17,10.5522847 17,10 L17,8.99983302 L15,9 C14.4477153,9 14,8.55228475 14,8 C14,7.44771525 14.4477153,7 15,7 L17,6.99983302 L17,6 L15,6 C14.4477153,6 14,5.55228475 14,5 C14,4.47940925 14.3978036,4.0517305 14.906016,4.0043585 L14.6660254,3.8660254 C14.1877328,3.58988303 14.0238576,2.97829262 14.3,2.5 C14.5761424,2.02170738 15.1877328,1.85783222 15.6660254,2.1339746 L18.015,3.48983302 L20.3641016,2.1339746 C20.8423942,1.85783222 21.4539846,2.02170738 21.730127,2.5 Z M12.996384,3.08522423 L12.9889807,3.14896122 L12.9889807,3.14896122 C12.9863719,3.16594901 12.9832978,3.18337526 12.9797599,3.20072576 C12.9753602,3.22274608 12.9701664,3.24443648 12.964279,3.26583961 L12.9502619,3.31214252 L12.9502619,3.31214252 C12.9438775,3.33179768 12.9366843,3.3515792 12.928896,3.37105852 L12.9063266,3.42322155 L12.9063266,3.42322155 C12.8966234,3.4438914 12.8862061,3.46429395 12.8751242,3.48427695 C12.8685012,3.49639444 12.8613931,3.50861311 12.8540045,3.52070875 C12.8382813,3.54627495 12.8215099,3.57113069 12.8036865,3.5951593 L12.7870723,3.61702235 L12.7870723,3.61702235 C12.7631579,3.64741214 12.7373491,3.67663364 12.7099385,3.70426371 C12.7090018,3.70520807 12.7080554,3.70615814 12.7071068,3.70710678 L10.5857864,5.82842712 C10.1952621,6.21895142 9.56209717,6.21895142 9.17157288,5.82842712 C8.78104858,5.43790283 8.78104858,4.80473785 9.17157288,4.41421356 L9.585,4 L4,4 L4,12 C4,12.5522847 3.55228475,13 3,13 C2.44771525,13 2,12.5522847 2,12 L2,4 C2,2.8954305 2.8954305,2 4,2 L12,2 C12.0840116,2 12.1656035,2.01035986 12.2435678,2.02987175 C12.2574066,2.0334646 12.2708057,2.0371177 12.284138,2.04105384 C12.3100269,2.04859496 12.335699,2.05735172 12.360878,2.06709846 C12.3738825,2.07216478 12.3869051,2.07751014 12.3998322,2.08314158 C12.4251495,2.09420587 12.4495008,2.10606813 12.4732749,2.11886446 C12.4849964,2.12508557 12.4973293,2.13204302 12.5095408,2.13928269 C12.5372239,2.15581479 12.563666,2.17327779 12.5891915,2.19192091 C12.5964771,2.19715574 12.6037566,2.20262925 12.6109771,2.20821516 L12.7044964,2.29028107 L12.7044964,2.29028107 L12.733,2.32183302 L12.7071068,2.29289322 L12.7565733,2.34602444 L12.7565733,2.34602444 L12.778,2.37283302 L12.8014677,2.40174549 L12.8014677,2.40174549 C12.8201235,2.42681868 12.8376353,2.45266776 12.8539326,2.47933981 C12.8613931,2.49138689 12.8685012,2.50360556 12.8753288,2.5159379 C12.8862061,2.53570605 12.8966234,2.5561086 12.9063462,2.57690085 C12.914321,2.5939015 12.9218036,2.61120435 12.9287745,2.62866398 C12.9365565,2.64810116 12.9436413,2.66755321 12.9501291,2.68727624 C12.9550667,2.70246964 12.9598084,2.71819538 12.9641549,2.73400703 C12.9701664,2.75556352 12.9753602,2.77725392 12.9798348,2.7992059 C12.9832978,2.81662474 12.9863719,2.83405099 12.9889822,2.85153313 C12.9920328,2.87147534 12.9944666,2.89211395 12.9962623,2.91293499 C12.9978436,2.93173451 12.9989053,2.94973363 12.9994829,2.96774538 C12.9998183,2.97778921 13,2.98887338 13,3 L12.999,3.03083302 L12.9983119,3.05826044 L12.9983119,3.05826044 L12.997,3.07483302 L12.996384,3.08522423 L12.996384,3.08522423 Z" id="形状结合" fill="#242629" fill-rule="nonzero"></path>
                </g>
            </g>
        </g>
    </g>
</svg>