<?xml version="1.0" encoding="UTF-8"?>
<svg width="32px" height="32px" viewBox="0 0 32 32" version="1.1" xmlns="http://www.w3.org/2000/svg" xmlns:xlink="http://www.w3.org/1999/xlink">
    <title>telegram</title>
    <g id="色彩规范" stroke="none" stroke-width="1" fill="none" fill-rule="evenodd">
        <g id="NutBox-icon" transform="translate(-260.000000, -554.000000)">
            <g id="编组-4" transform="translate(100.000000, 512.000000)">
                <g id="编组-7备份" transform="translate(0.000000, 42.000000)">
                    <g id="编组-19" transform="translate(160.000000, 0.000000)">
                        <rect id="矩形备份-10" fill="#F6F7F9" x="0" y="0" width="32" height="32" rx="16"></rect>
                        <g id="telegram" transform="translate(8.000000, 8.000000)" fill="#FFDB1B" fill-rule="nonzero">
                            <path d="M10.6160781,11.6696406 L11.9285781,5.48214062 C11.9821406,5.22023437 11.9508906,5.03273437 11.8348281,4.91964062 C11.7187656,4.80654687 11.5654896,4.78571354 11.375,4.85714062 L3.66071875,7.83035937 C3.48809375,7.89583854 3.37053125,7.97024479 3.30803125,8.05357812 C3.24553125,8.13691146 3.23809375,8.21577604 3.28571875,8.29017188 C3.33334375,8.36456771 3.42857812,8.42260417 3.57142187,8.46428125 L5.54464062,9.08035938 L10.125,6.19640625 C10.25,6.11307292 10.3452396,6.09521875 10.4107188,6.14284375 C10.4523854,6.17260417 10.4404792,6.21724479 10.375,6.27676562 L6.66964063,9.625 L6.52678125,11.6607188 C6.6636875,11.6607188 6.79761979,11.5952396 6.92857813,11.4642813 L7.89285938,10.5357188 L9.89285938,12.0089219 C10.2738073,12.2232135 10.5148802,12.1101198 10.6160781,11.6696406 L10.6160781,11.6696406 Z M16,8 C16,9.08333333 15.7886927,10.1190469 15.3660781,11.1071406 C14.9434635,12.0952344 14.3750104,12.9464271 13.6607187,13.6607187 C12.9464271,14.3750104 12.0952344,14.9434635 11.1071406,15.3660781 C10.1190469,15.7886927 9.08333333,16 8,16 C6.91666667,16 5.88095313,15.7886927 4.89285938,15.3660781 C3.90476563,14.9434635 3.05357292,14.3750104 2.33928125,13.6607187 C1.62498958,12.9464271 1.05653646,12.0952344 0.633921875,11.1071406 C0.211307292,10.1190469 0,9.08333333 0,8 C0,6.91666667 0.211307292,5.88095313 0.633921875,4.89285938 C1.05653646,3.90476563 1.62498958,3.05357292 2.33928125,2.33928125 C3.05357292,1.62498958 3.90476563,1.05653646 4.89285937,0.633921875 C5.88095312,0.211307292 6.91666667,0 8,0 C9.08333333,0 10.1190469,0.211307292 11.1071406,0.633921875 C12.0952344,1.05653646 12.9464271,1.62498958 13.6607187,2.33928125 C14.3750104,3.05357292 14.9434635,3.90476563 15.3660781,4.89285938 C15.7886927,5.88095313 16,6.91666667 16,8 Z" id="形状"></path>
                        </g>
                    </g>
                </g>
            </g>
        </g>
    </g>
</svg>