<?xml version="1.0" encoding="UTF-8"?>
<svg width="24px" height="24px" viewBox="0 0 24 24" version="1.1" xmlns="http://www.w3.org/2000/svg" xmlns:xlink="http://www.w3.org/1999/xlink">
    <title>icon/heart/l/n</title>
    <g id="色彩规范" stroke="none" stroke-width="1" fill="none" fill-rule="evenodd">
        <g id="NutBox-icon" transform="translate(-236.000000, -362.000000)">
            <g id="编组-3" transform="translate(100.000000, 323.000000)">
                <g id="icon/heart/l/n" transform="translate(136.000000, 39.000000)">
                    <rect id="Rectangle-3" fill="#D8D8D8" opacity="0" x="0" y="0" width="24" height="24"></rect>
                    <path d="M12.4899754,21.9517036 L12.4826877,21.9473826 L12.4826877,21.9473826 C9.31002797,20.0199376 6.55079369,17.4797684 4.36922184,14.4911121 C3.51113409,13.3895768 3,12.0044793 3,10.5 C3,6.91014913 5.91014913,4 9.5,4 C10.7886423,4 11.9896995,4.37499648 13,5.02181791 C14.0103005,4.37499648 15.2113577,4 16.5,4 C20.0898509,4 23,6.91014913 23,10.5 C23,12.0044793 22.4888659,13.3895768 21.6307782,14.4911121 C19.4496732,17.4791289 16.691153,20.0188504 13.5193492,21.9461451 L13.5100117,21.9516819 C13.1955637,22.138137 12.8044313,22.1381453 12.4899754,21.9517036 Z" id="Oval-Copy" fill="#FFDB1B" fill-rule="nonzero"></path>
                    <path d="M15.5,3 C19.0898509,3 22,5.91014913 22,9.5 C22,11.0044793 21.4888659,12.3895768 20.6307782,13.4911121 C19.3100758,15.3004156 17.7776616,16.9453497 16.0699756,18.3894746 C15.8898688,18.5557242 15.6501888,18.6576233 15.386709,18.6576233 C14.8344243,18.6576233 14.386709,18.209908 14.386709,17.6576233 C14.386709,17.3309509 14.5433484,17.0408635 14.7856158,16.8583724 L14.7847046,16.8571038 C16.3665922,15.5185331 17.7885031,13.9926889 19.0153663,12.311941 L19.053003,12.2620371 C19.6640378,11.477646 20,10.5170813 20,9.5 C20,7.01471863 17.9852814,5 15.5,5 C14.6269729,5 13.7955383,5.24704226 13.0783783,5.70618728 L12,6.39659395 L10.9216217,5.70618728 C10.2044617,5.24704226 9.37302709,5 8.5,5 C6.01471863,5 4,7.01471863 4,9.5 C4,10.5170813 4.33596224,11.477646 4.98463373,12.311941 C6.89381043,14.9274281 9.27531224,17.1678023 11.9969791,18.9110838 C12.2984962,19.0846867 12.5021973,19.4096377 12.5021973,19.7821655 C12.5021973,20.3344503 12.054482,20.7821655 11.5021973,20.7821655 C11.3444016,20.7821655 11.1951423,20.7456173 11.0624226,20.6805244 L10.997,20.645 L10.9816988,20.6361969 C10.9747276,20.6319391 10.9678127,20.6275984 10.9609553,20.6231762 L10.9577672,20.6204966 C8.00522929,18.7363124 5.42959526,16.313732 3.36922184,13.4911121 C2.51113409,12.3895768 2,11.0044793 2,9.5 C2,5.91014913 4.91014913,3 8.5,3 C9.7886423,3 10.9896995,3.37499648 12,4.02181791 C13.0103005,3.37499648 14.2113577,3 15.5,3 Z M12,7.5 C12.5522847,7.5 13,7.94771525 13,8.5 L13,10 L14.5,10 C15.0522847,10 15.5,10.4477153 15.5,11 C15.5,11.5522847 15.0522847,12 14.5,12 L13,12 L13,13.5 C13,14.0522847 12.5522847,14.5 12,14.5 C11.4477153,14.5 11,14.0522847 11,13.5 L11,12 L9.5,12 C8.94771525,12 8.5,11.5522847 8.5,11 C8.5,10.4477153 8.94771525,10 9.5,10 L11,10 L11,8.5 C11,7.94771525 11.4477153,7.5 12,7.5 Z" id="形状结合" fill="#242629" fill-rule="nonzero"></path>
                </g>
            </g>
        </g>
    </g>
</svg>