<?xml version="1.0" encoding="UTF-8"?>
<svg width="24px" height="24px" viewBox="0 0 24 24" version="1.1" xmlns="http://www.w3.org/2000/svg" xmlns:xlink="http://www.w3.org/1999/xlink">
    <title>icon/keyboard/l</title>
    <g id="色彩规范" stroke="none" stroke-width="1" fill="none" fill-rule="evenodd">
        <g id="NutBox-icon" transform="translate(-100.000000, -362.000000)">
            <g id="编组-3" transform="translate(100.000000, 323.000000)">
                <g id="icon/keyboard/l" transform="translate(0.000000, 39.000000)">
                    <rect id="Rectangle-3" fill="#D8D8D8" opacity="0" x="0" y="0" width="24" height="24"></rect>
                    <path d="M4.5,4.5 L21.5,4.5 C22.0522847,4.5 22.5,4.94771525 22.5,5.5 L22.5,19.8713364 C22.5,20.3099706 22.2096732,20.6956398 21.7881495,20.8169564 C18.9901189,21.5880803 16.043164,22 13,22 C9.96278824,22 7.02140949,21.5896901 4.22827046,20.821477 C3.78478427,20.6939644 3.5,20.3157603 3.5,19.8855896 L3.5,5.5 C3.5,4.94771525 3.94771525,4.5 4.5,4.5 Z" id="Oval-8-Copy" fill="#FFDB1B" fill-rule="nonzero"></path>
                    <path d="M20.5,3.5 C21.0522847,3.5 21.5,3.94771525 21.5,4.5 L21.5,15 C21.5,15.5522847 21.0522847,16 20.5,16 C19.9477153,16 19.5,15.5522847 19.5,15 L19.5,14 L15,14 C13.3431458,14 12,12.6568542 12,11 C12,9.34314575 13.3431458,8 15,8 L19.5,8 L19.5,5.5 L4.5,5.5 L4.5,18.087084 C6.93198473,18.6912328 9.44469813,19 12,19 C14.5610181,19 17.079249,18.6898495 19.5,18.0876207 L19.5161122,18.0879713 C19.6031529,18.0632387 19.6950304,18.05 19.79,18.05 C20.3422847,18.05 20.79,18.4977153 20.79,19.05 C20.79,19.5513154 20.4211092,19.9664717 19.9399666,20.03883 L20.0600474,20.0086407 C17.48048,20.6561452 14.7803958,21 12,21 C8.96278824,21 6.02140949,20.5896901 3.22827046,19.821477 C2.78478427,19.6939644 2.5,19.3157603 2.5,18.8855896 L2.5,4.5 C2.5,3.94771525 2.94771525,3.5 3.5,3.5 L20.5,3.5 Z M19.5,12 L19.5,10 L15,10 C14.4477153,10 14,10.4477153 14,11 C14,11.5128358 14.3860402,11.9355072 14.8833789,11.9932723 L15,12 L19.5,12 Z" id="形状结合" fill="#242629" fill-rule="nonzero"></path>
                </g>
            </g>
        </g>
    </g>
</svg>