<?xml version="1.0" standalone="no"?>
    <!DOCTYPE svg PUBLIC "-//W3C//DTD SVG 1.1//EN" "http://www.w3.org/Graphics/SVG/1.1/DTD/svg11.dtd">
    <svg t="1615770478763" class="icon" viewBox="0 0 1024 1024" version="1.1" xmlns="http://www.w3.org/2000/svg" p-id="4474" xmlns:xlink="http://www.w3.org/1999/xlink" width="200" height="200" >
    <defs><style type="text/css"></style></defs>
    <path fill="#eeeeee" d="M776.753 281.582c3.364 4.885 6.615 9.431 9.4 13.898 2.913 4.365 5.38 8.62 7.721 12.487 1.197 1.916 2.21 3.845 3.228 5.647l2.884 5.162c0.484 0.83 0.838 1.572 1.21 2.307l1.078 2.131 1.962 3.85 0.883 1.718 0.96 1.95 1.691 3.444 3.1 6.314c1.266 2.534 2.876 5.27 4.588 7.641 17.102 23.704 50.18 29.054 73.884 11.953 23.702-17.102 29.054-50.18 11.952-73.884l-4.115-5.704-2.245-3.111-1.317-1.82-1.712-2.303-3.824-5.119a6387.776 6387.776 0 0 0-2.108-2.806c-0.724-0.96-1.473-1.978-2.226-2.885a29308.553 29308.553 0 0 1-4.783-5.92c-1.683-2.059-3.391-4.247-5.313-6.422-3.791-4.387-7.827-9.161-12.411-14.02-4.457-4.962-9.486-9.979-14.712-15.288-5.384-5.174-11-10.617-17.144-15.983a442.728 442.728 0 0 0-41.163-32.378 434.716 434.716 0 0 0-49.656-29.792 431.844 431.844 0 0 0-56.39-24.02c-2.434-0.896-4.926-1.659-7.407-2.45l-7.45-2.363c-5.002-1.487-10.045-2.87-15.075-4.269l-7.62-1.876c-2.545-0.6-5.059-1.3-7.63-1.803l-7.672-1.617-3.83-0.804-3.856-0.69a421.22 421.22 0 0 0-61.495-6.664c-5.061-0.266-10.12-0.21-15.13-0.245l-3.75-0.015c-1.247-0.001-2.496 0.06-3.741 0.088l-7.439 0.22-3.695 0.112-3.68 0.232-7.31 0.466-3.913 0.245-3.456 0.35-6.874 0.697c-1.154 0.123-2.251 0.214-3.444 0.362l-3.602 0.463-7.132 0.928c-1.175 0.163-2.369 0.29-3.517 0.483l-3.437 0.569-6.806 1.133c-9.005 1.604-17.743 3.437-26.162 5.505a407.105 407.105 0 0 0-46.415 14.363l-5.189 1.982-2.548 0.973-2.492 1.043-9.647 4.052c-6.182 2.854-12.061 5.44-17.43 8.22-10.835 5.316-19.917 10.585-27.33 14.948-7.347 4.501-13.043 8.097-16.823 10.72l-5.835 3.93 6.41-2.893c4.142-1.942 10.35-4.525 18.246-7.689 7.962-3.026 17.627-6.631 28.933-9.972 5.604-1.794 11.69-3.314 18.032-5.033l9.847-2.295 2.53-0.587 2.58-0.512 5.235-1.04a386.457 386.457 0 0 1 45.749-6.055c8.13-0.587 16.482-0.902 24.993-0.966l6.416 0.026 3.226 0.012c1.078 0.002 2.123 0.074 3.19 0.108l6.383 0.25 3.202 0.121c1.08 0.047 2.265 0.146 3.396 0.217a31381.099 31381.099 0 0 1 10.36 0.702l0.216 0.015c-0.516 0.011-0.024 0.016-0.086 0.023l0.415 0.044 0.83 0.09 1.663 0.175 6.663 0.703 3.34 0.352 3.341 0.47 6.697 0.94c1.117 0.164 2.237 0.294 3.353 0.487l3.35 0.589c4.467 0.799 8.952 1.501 13.406 2.513a373.301 373.301 0 0 1 52.76 14.991l3.22 1.157 3.184 1.263 6.35 2.513c2.125 0.797 4.185 1.784 6.271 2.665l6.225 2.707c4.09 1.94 8.17 3.84 12.188 5.821l5.961 3.084c1.98 1.025 3.967 2.016 5.89 3.133a364.31 364.31 0 0 1 43.508 28.028 357.817 357.817 0 0 1 36.255 31.18 357.362 357.362 0 0 1 28.378 31.46c4.12 5.054 7.785 10.12 11.304 14.868zM513.33 961.97h0.004l6.99-0.77 8.398-0.924 5.383-0.603 7.165-1.014c5.035-0.727 10.625-1.53 16.618-2.472l18.357-3.743c3.275-0.608 6.607-1.528 10.042-2.399l10.568-2.726c1.8-0.49 3.64-0.896 5.467-1.474l5.55-1.721 11.444-3.577 2.93-0.922 2.921-1.065c1.954-0.715 3.926-1.44 5.917-2.17 3.974-1.47 8.025-2.935 12.112-4.495l12.288-5.22 6.26-2.676c2.096-0.912 4.149-1.975 6.242-2.967l12.646-6.15c1.072-0.5 2.117-1.073 3.162-1.649l3.15-1.72 6.337-3.473 6.386-3.51c2.128-1.19 4.195-2.533 6.306-3.801l12.68-7.8c16.697-11.046 33.216-23.32 48.905-36.93a468.806 468.806 0 0 0 43.985-44.456 463.726 463.726 0 0 0 36.564-49.857c10.723-17.246 19.904-34.894 27.808-52.281l5.44-13.118c0.874-2.17 1.82-4.29 2.617-6.465l2.33-6.506 2.293-6.42 1.133-3.178c0.382-1.053 0.759-2.104 1.064-3.18l3.826-12.63c0.607-2.08 1.288-4.113 1.818-6.183l1.542-6.17 2.99-12.014c0.827-3.976 1.571-7.897 2.333-11.725l1.117-5.687 0.546-2.798 0.409-2.8 1.58-10.875 0.757-5.238c0.262-1.72 0.354-3.453 0.536-5.142l0.929-9.878c0.29-3.197 0.646-6.285 0.712-9.315l0.723-16.857-0.096-14.29-0.05-6.094c-0.08-1.914-0.209-3.709-0.3-5.375l-0.497-8.454-0.415-7.016-0.769 6.996-0.923 8.375c-0.189 1.645-0.36 3.413-0.6 5.293l-0.968 5.974-2.265 13.888-3.473 16.166c-0.552 2.885-1.409 5.813-2.21 8.833l-2.494 9.291c-0.447 1.583-0.808 3.203-1.341 4.807l-1.576 4.871-3.25 10.048-0.83 2.572-0.971 2.561-1.97 5.188c-1.334 3.485-2.652 7.037-4.055 10.62l-4.716 10.76-2.402 5.486c-0.817 1.835-1.783 3.628-2.676 5.46l-5.516 11.065c-0.445 0.939-0.962 1.851-1.481 2.764l-1.548 2.752-3.113 5.54-3.136 5.583c-1.063 1.861-2.273 3.66-3.409 5.504L846.6 693.47c-9.885 14.559-20.814 28.959-32.907 42.609a416.284 416.284 0 0 1-39.436 38.175A411.255 411.255 0 0 1 730.21 805.8c-15.209 9.207-30.737 17.041-45.987 23.785-3.87 1.548-7.71 3.081-11.511 4.6-1.904 0.741-3.756 1.557-5.664 2.225l-5.704 1.955-5.622 1.935-2.779 0.96c-0.92 0.324-1.839 0.645-2.782 0.896l-11.05 3.193c-1.818 0.508-3.591 1.092-5.402 1.527l-5.394 1.267-10.486 2.486-10.235 1.892-4.957 0.918-2.436 0.452-2.443 0.318-9.478 1.25-4.56 0.613c-1.497 0.216-3.008 0.264-4.48 0.403l-8.601 0.698c-2.784 0.219-5.467 0.513-8.106 0.523l-14.666 0.453-11.56-0.304-4.903-0.096-5.285-0.301-8.433-0.498-7.021-0.415c-2.83-0.149-6.002-0.094-8.91 0.225-29.054 3.197-50.014 29.34-46.817 58.393 3.196 29.053 29.34 50.014 58.393 46.817zM291.877 839.987l-5.183-4.279c-1.803-1.504-3.725-3.023-5.624-4.746-3.836-3.39-8.023-6.984-12.267-11.081-4.345-3.97-8.718-8.466-13.364-13.115-4.51-4.805-9.27-9.797-13.943-15.27a389.914 389.914 0 0 1-28.165-36.574 381.828 381.828 0 0 1-25.755-43.968 378.947 378.947 0 0 1-20.557-49.738c-0.768-2.14-1.407-4.337-2.075-6.52l-2.003-6.553c-1.253-4.4-2.41-8.835-3.596-13.252l-1.564-6.694c-0.498-2.237-1.1-4.44-1.507-6.7l-1.338-6.734-0.671-3.36-0.563-3.384a368.506 368.506 0 0 1-5.219-53.88c-0.192-4.43-0.077-8.861-0.063-13.244l0.02-3.281c0.01-1.088 0.087-2.102 0.127-3.153l0.275-6.21 0.128-3.081 0.238-3.513 0.472-6.997 0.117-1.742 0.058-0.869 0.03-0.434c0.007 0.194 0.004-0.742 0.019 0.38l0.022-0.198 0.348-3.158 0.685-6.264a357.38 357.38 0 0 1 8.8-47.016 353.742 353.742 0 0 1 13.002-40.261l1.777-4.492 0.87-2.207 0.937-2.155 3.624-8.344c2.564-5.339 4.854-10.425 7.341-15.057 4.728-9.359 9.42-17.184 13.28-23.578l0.71-1.176a953.957 953.957 0 0 0 2-3.038l2.362-3.618 1.049-1.618 1.19-1.777 2.144-3.182 3.93-5.834c1.566-2.36 3.135-5.12 4.34-7.784 12.032-26.637 0.192-57.984-26.445-70.015-26.638-12.032-57.985-0.192-70.016 26.445l-2.896 6.41-1.579 3.497-0.934 2.082-1.145 2.632-2.535 5.867-1.384 3.227-0.72 1.685-0.654 1.67c-3.528 8.983-7.71 19.904-11.639 32.686-2.087 6.341-3.905 13.22-5.912 20.405l-2.725 11.15-0.691 2.866-0.617 2.923-1.243 5.932a439.267 439.267 0 0 0-7.417 51.903 434.43 434.43 0 0 0-0.877 57.888l0.457 7.501 0.233 3.766 0.015 0.236c0.018 1.265 0.018 0.475 0.027 0.815l0.044 0.432 0.088 0.867 0.177 1.737 0.71 6.977 0.356 3.508 0.487 3.957 0.996 7.923c0.176 1.311 0.32 2.666 0.525 3.943l0.624 3.818c0.848 5.093 1.61 10.204 2.694 15.292a426.426 426.426 0 0 0 16.437 60.374l1.286 3.69 1.395 3.655 2.792 7.287c0.893 2.436 1.978 4.806 2.962 7.202l3.018 7.15c2.154 4.702 4.28 9.39 6.495 14.01l3.443 6.86c1.15 2.277 2.265 4.56 3.508 6.778a416.904 416.904 0 0 0 31.491 50.16 410.602 410.602 0 0 0 35.216 41.941 410.094 410.094 0 0 0 35.672 32.968c5.75 4.795 11.498 9.084 16.91 13.182 5.548 3.94 10.738 7.725 15.82 10.997 4.98 3.4 9.824 6.31 14.242 9.05 2.19 1.396 4.385 2.599 6.444 3.795 2.064 1.186 4.03 2.316 5.898 3.387 7.569 4.119 13.522 7.27 17.68 9.237l6.315 3.1-5.703-4.115c-3.75-2.624-9.079-6.724-15.763-11.984z" p-id="4475"></path></svg>