<svg id="图层_1" data-name="图层 1" xmlns="http://www.w3.org/2000/svg" viewBox="0 0 1530.71 1530.71"><defs><style>.cls-1{fill:#c542cc;}.cls-2{fill:#d6369d;}.cls-3{fill:#68d2e4;}.cls-4{fill:#5ceae6;}.cls-5{fill:#5cbdff;}</style></defs><title>画板 1</title><path class="cls-1" d="M765.46,321c-223,0-403.71,180.75-403.71,403.72s180.75,403.71,403.71,403.71,403.72-180.75,403.72-403.71S988.43,321,765.46,321Zm.46,738.06C581.49,1059.06,432,909.54,432,725.11S581.49,391.16,765.92,391.16s333.95,149.52,333.95,334S950.36,1059.06,765.92,1059.06Z"/><path class="cls-2" d="M760,451.79c-150.62,0-272.71,122.09-272.71,272.7S609.4,997.2,760,997.2s272.7-122.09,272.7-272.71S910.63,451.79,760,451.79Zm.3,484.94c-117.07,0-212-94.9-212-212s94.91-212,212-212,212,94.9,212,212S877.39,936.73,760.32,936.73Z"/><path class="cls-3" d="M760,682.34a42.16,42.16,0,1,0,42.15,42.15A42.16,42.16,0,0,0,760,682.34Z"/><rect class="cls-2" x="540.7" y="741.35" width="60" height="595.7" transform="translate(-171.78 114.89) rotate(-10)"/><path class="cls-4" d="M765.46,202.65c-288.32,0-522.06,233.74-522.06,522.07s233.74,522.06,522.06,522.06S1287.53,1013,1287.53,724.72,1053.79,202.65,765.46,202.65Zm.6,979.76c-252.49,0-457.18-204.69-457.18-457.18S513.57,268.05,766.06,268.05s457.18,204.68,457.18,457.18S1018.55,1182.41,766.06,1182.41Z"/><path class="cls-5" d="M765.46,72.75c-360.07,0-652,291.89-652,652s291.89,652,652,652,652-291.89,652-652S1125.54,72.75,765.46,72.75Zm.76,1233.72c-320.93,0-581.1-260.17-581.1-581.1s260.17-581.1,581.1-581.1,581.1,260.16,581.1,581.1S1087.16,1306.47,766.22,1306.47Z"/></svg>