<?xml version="1.0" encoding="UTF-8"?>
<svg width="20px" height="20px" viewBox="0 0 20 20" version="1.1" xmlns="http://www.w3.org/2000/svg" xmlns:xlink="http://www.w3.org/1999/xlink">
    <title>fail</title>
    <g id="页面-1" stroke="none" stroke-width="1" fill="none" fill-rule="evenodd">
        <g id="008" transform="translate(-1478.000000, -382.000000)" fill="#FFFFFF" fill-rule="nonzero">
            <g id="编组备份-3" transform="translate(1265.000000, 360.000000)">
                <g id="fail" transform="translate(213.000000, 22.000000)">
                    <path d="M10,0 C15.5228475,0 20,4.4771525 20,10 C20,15.5228475 15.5228475,20 10,20 C4.4771525,20 0,15.5228475 0,10 C0,4.4771525 4.4771525,0 10,0 Z M10,1 C5.02943725,1 1,5.02943725 1,10 C1,14.9705627 5.02943725,19 10,19 C14.9705627,19 19,14.9705627 19,10 C19,5.02943725 14.9705627,1 10,1 Z M13.7656854,6.23431458 C14.0520699,6.52069906 14.0759353,6.970192 13.8372815,7.28376122 L13.7656854,7.36568542 L11.1313708,9.99903353 L13.7656854,12.6343146 C14.0781049,12.946734 14.0781049,13.453266 13.7656854,13.7656854 C13.4793009,14.0520699 13.029808,14.0759353 12.7162388,13.8372815 L12.6343146,13.7656854 L10,11.1304044 L7.36568542,13.7656854 C7.05326599,14.0781049 6.54673401,14.0781049 6.23431458,13.7656854 C5.94793009,13.4793009 5.92406472,13.029808 6.16271845,12.7162388 L6.23431458,12.6343146 L8.86862915,9.99903353 L6.23431458,7.36568542 C5.92189514,7.05326599 5.92189514,6.54673401 6.23431458,6.23431458 C6.52069906,5.94793009 6.970192,5.92406472 7.28376122,6.16271845 L7.36568542,6.23431458 L10,8.86766268 L12.6343146,6.23431458 C12.946734,5.92189514 13.453266,5.92189514 13.7656854,6.23431458 Z" id="形状结合"></path>
                </g>
            </g>
        </g>
    </g>
</svg>