<?xml version="1.0" encoding="UTF-8"?>
<svg width="20px" height="20px" viewBox="0 0 20 20" version="1.1" xmlns="http://www.w3.org/2000/svg" xmlns:xlink="http://www.w3.org/1999/xlink">
    <title>success</title>
    <g id="页面-1" stroke="none" stroke-width="1" fill="none" fill-rule="evenodd">
        <g id="008" transform="translate(-875.000000, -382.000000)" fill="#FFFFFF" fill-rule="nonzero">
            <g id="编组备份-2" transform="translate(680.000000, 360.000000)">
                <g id="success" transform="translate(195.000000, 22.000000)">
                    <path d="M10,0 C15.5228475,0 20,4.4771525 20,10 C20,15.5228475 15.5228475,20 10,20 C4.4771525,20 0,15.5228475 0,10 C0,4.4771525 4.4771525,0 10,0 Z M10,1 C5.02943725,1 1,5.02943725 1,10 C1,14.9705627 5.02943725,19 10,19 C14.9705627,19 19,14.9705627 19,10 C19,5.02943725 14.9705627,1 10,1 Z M14.6287859,6.61779681 C15.0153228,6.92840329 15.1064205,7.4704097 14.8630897,7.88584134 L14.7800186,8.00631561 L9.93881818,14.0309894 C9.60611578,14.4450238 9.01372126,14.5161977 8.59508738,14.2163616 L8.48554828,14.1253683 L5.70424476,11.4596347 C5.31045361,11.0822066 5.29718879,10.4570098 5.67461697,10.0632186 C6.01773349,9.70522666 6.56561746,9.66171928 6.95825818,9.94033483 L7.07103309,10.0335908 L9.07458887,11.9531916 L13.2402671,6.76902948 C13.5819342,6.34383885 14.2035953,6.27612968 14.6287859,6.61779681 Z" id="形状结合"></path>
                </g>
            </g>
        </g>
    </g>
</svg>