<?xml version="1.0" encoding="UTF-8"?>
<svg width="16px" height="16px" viewBox="0 0 16 16" version="1.1" xmlns="http://www.w3.org/2000/svg" xmlns:xlink="http://www.w3.org/1999/xlink">
    <title>link-24px备份 2</title>
    <g id="页面-1" stroke="none" stroke-width="1" fill="none" fill-rule="evenodd" opacity="0.560000002">
        <g id="001" transform="translate(-449.000000, -356.000000)">
            <g id="编组-6备份-4" transform="translate(340.000000, 320.000000)">
                <g id="link-24px备份-2" transform="translate(109.000000, 36.000000)">
                    <rect id="矩形" x="0" y="0" width="16" height="16"></rect>
                    <path d="M11.3333333,4.66666667 L9.33333333,4.66666667 C8.96666667,4.66666667 8.66666667,4.96666667 8.66666667,5.33333333 C8.66666667,5.7 8.96666667,6 9.33333333,6 L11.3333333,6 C12.4333333,6 13.3333333,6.9 13.3333333,8 C13.3333333,9.1 12.4333333,10 11.3333333,10 L9.33333333,10 C8.96666667,10 8.66666667,10.3 8.66666667,10.6666667 C8.66666667,11.0333333 8.96666667,11.3333333 9.33333333,11.3333333 L11.3333333,11.3333333 C13.1733333,11.3333333 14.6666667,9.84 14.6666667,8 C14.6666667,6.16 13.1733333,4.66666667 11.3333333,4.66666667 Z M5.33333333,8 C5.33333333,8.36666667 5.63333333,8.66666667 6,8.66666667 L10,8.66666667 C10.3666667,8.66666667 10.6666667,8.36666667 10.6666667,8 C10.6666667,7.63333333 10.3666667,7.33333333 10,7.33333333 L6,7.33333333 C5.63333333,7.33333333 5.33333333,7.63333333 5.33333333,8 Z M6.66666667,10 L4.66666667,10 C3.56666667,10 2.66666667,9.1 2.66666667,8 C2.66666667,6.9 3.56666667,6 4.66666667,6 L6.66666667,6 C7.03333333,6 7.33333333,5.7 7.33333333,5.33333333 C7.33333333,4.96666667 7.03333333,4.66666667 6.66666667,4.66666667 L4.66666667,4.66666667 C2.82666667,4.66666667 1.33333333,6.16 1.33333333,8 C1.33333333,9.84 2.82666667,11.3333333 4.66666667,11.3333333 L6.66666667,11.3333333 C7.03333333,11.3333333 7.33333333,11.0333333 7.33333333,10.6666667 C7.33333333,10.3 7.03333333,10 6.66666667,10 Z" id="形状" fill="#000000" fill-rule="nonzero"></path>
                </g>
            </g>
        </g>
    </g>
</svg>