<?xml version="1.0" standalone="no"?><!DOCTYPE svg PUBLIC "-//W3C//DTD SVG 1.1//EN" "http://www.w3.org/Graphics/SVG/1.1/DTD/svg11.dtd"><svg t="1611821708202" class="icon" viewBox="0 0 1024 1024" version="1.1" xmlns="http://www.w3.org/2000/svg" p-id="1561" xmlns:xlink="http://www.w3.org/1999/xlink" width="200" height="200"><defs><style type="text/css"></style></defs><path d="M942.04443 391.585513l-68.810179 0L873.234251 150.763702 632.41244 150.763702l0-68.807109 309.63199 0L942.04443 391.585513zM408.786267 942.043407c-180.214455 0-326.83172-146.620335-326.83172-326.83479 0-180.211385 146.616242-326.830697 326.83172-326.830697 180.217525 0 326.83479 146.620335 326.83479 326.830697C735.621057 795.423071 589.004815 942.043407 408.786267 942.043407zM408.786267 357.187075c-142.28254 0-258.024611 115.748211-258.024611 258.021541 0 142.276401 115.742071 258.027681 258.024611 258.027681 142.28561 0 258.027681-115.751281 258.027681-258.027681C666.813948 472.936309 551.072901 357.187075 408.786267 357.187075zM624.39893 434.004625c-8.803503 0-17.60803-3.360538-24.326035-10.079566-13.43601-13.429871-13.43601-35.219129 0-48.649l283.240923-283.240923c13.440104-13.440104 35.211966-13.440104 48.65207 0 13.437034 13.43294 13.437034 35.219129 0 48.649l-283.243993 283.240923C642.002866 430.644087 633.202433 434.004625 624.39893 434.004625z" p-id="1562"></path></svg>