<?xml version="1.0" standalone="no"?><!DOCTYPE svg PUBLIC "-//W3C//DTD SVG 1.1//EN" "http://www.w3.org/Graphics/SVG/1.1/DTD/svg11.dtd"><svg t="1611821723540" class="icon" viewBox="0 0 1024 1024" version="1.1" xmlns="http://www.w3.org/2000/svg" p-id="1056" xmlns:xlink="http://www.w3.org/1999/xlink" width="200" height="200"><defs><style type="text/css"></style></defs><path d="M710.213387 547.631522c109.309568-108.900246 109.299335-286.065248 0.010233-394.945027-109.309568-108.890013-287.139719-108.900246-396.449287 0-109.299335 108.87978-109.289102 286.044782 0.020466 394.945027 47.143717 46.969755 107.058294 73.678046 168.712493 80.114642l0 129.530099-137.419789 0-0.010233 58.799174 137.419789 0 0 136.88767 59.003835 0.020466 0-136.897903 137.419789 0 0.010233-58.809407-137.430022 0 0-129.530099C603.155093 621.309568 663.059438 594.601276 710.213387 547.631522zM355.50476 506.064824c-86.295412-85.967954-86.295412-225.843678 0-311.801399 86.295412-85.978187 226.703255-85.98842 312.998667-0.020466 86.285179 85.967954 86.274946 225.853911-0.020466 311.821865C582.197782 592.032778 441.789938 592.032778 355.50476 506.064824z" p-id="1057"></path></svg>