<?xml version="1.0" standalone="no"?><!DOCTYPE svg PUBLIC "-//W3C//DTD SVG 1.1//EN" "http://www.w3.org/Graphics/SVG/1.1/DTD/svg11.dtd"><svg t="1615559082315" class="icon" viewBox="0 0 1024 1024" version="1.1" xmlns="http://www.w3.org/2000/svg" p-id="3476" xmlns:xlink="http://www.w3.org/1999/xlink" width="200" height="200"><defs><style type="text/css"></style></defs><path d="M524.288 26.185143c-274.695314 0-497.371429 222.676114-497.371429 497.371428s222.676114 497.371429 497.371429 497.371429 497.371429-222.676114 497.371429-497.371429-222.676114-497.371429-497.371429-497.371428z m0 643.657143a146.285714 146.285714 0 1 1 0-292.571429 146.285714 146.285714 0 0 1 0 292.571429z" fill="#EEAF4B" p-id="3477"></path><path d="M704.1024 251.874743c-177.152-27.209143-228.264229-108.368457-381.805714-28.847543-106.7008 55.296-96.899657 242.658743-291.605943 241.810286C59.772343 217.877943 269.487543 26.185143 524.288 26.185143c145.583543 0 276.158171 62.932114 367.118629 162.640457-51.785143 40.257829-117.730743 73.728-187.304229 63.049143" fill="#ED7161" p-id="3478"></path></svg>