<svg xmlns="http://www.w3.org/2000/svg" xmlns:xlink="http://www.w3.org/1999/xlink" width="1920" height="1080" viewBox="0 0 1920 1080">
  <metadata><?xpacket begin="﻿" id="W5M0MpCehiHzreSzNTczkc9d"?>
<x:xmpmeta xmlns:x="adobe:ns:meta/" x:xmptk="Adobe XMP Core 5.6-c142 79.160924, 2017/07/13-01:06:39        ">
   <rdf:RDF xmlns:rdf="http://www.w3.org/1999/02/22-rdf-syntax-ns#">
      <rdf:Description rdf:about=""/>
   </rdf:RDF>
</x:xmpmeta>
<?xpacket end="w"?></metadata>
<defs>
    <style>
      .cls-1, .cls-2 {
        fill-rule: evenodd;
      }

      .cls-1 {
        fill: url(#linear-gradient);
      }

      .cls-2 {
        fill: #fff;
      }

      .cls-3 {
        fill: none;
        stroke-width: 30px;
        stroke: url(#linear-gradient-2);
      }

      .cls-4 {
        font-size: 60px;
        fill: #22c6f5;
        font-family: "Microsoft YaHei";
        text-transform: uppercase;
      }
    </style>
    <linearGradient id="linear-gradient" x1="944.779" y1="869" x2="944.779" y2="342.438" gradientUnits="userSpaceOnUse">
      <stop offset="0" stop-color="#0444ce"/>
      <stop offset="0.51" stop-color="#24c5f2"/>
      <stop offset="1" stop-color="#22c6f5"/>
    </linearGradient>
    <linearGradient id="linear-gradient-2" x1="932" y1="877" x2="932" y2="177" gradientUnits="userSpaceOnUse">
      <stop offset="0" stop-color="#0442ce"/>
      <stop offset="0.008" stop-color="#0442ce"/>
      <stop offset="0.515" stop-color="#24bfed"/>
      <stop offset="1" stop-color="#22c6f5"/>
    </linearGradient>
  </defs>
  <path id="形状_1_拷贝_8" data-name="形状 1 拷贝 8" class="cls-1" d="M905.767,836.41c0.979-1.637,1.839-3.336,2.729-5.019-0.166-.356-0.363-0.7-0.524-1.056a4.358,4.358,0,0,0,.594.928C918.8,811.85,924.48,792.532,927.892,771.1c3.742-23.523,6.445-47.809,9.06-71.3,6.263-56.266,12.76-114.339,34.039-167.624a0.2,0.2,0,0,0-.233-0.261,320.9,320.9,0,0,0-63.7,24.84C830.608,596.413,654.333,774.38,730,809c33.966,15.541,82.283,43.022,117,49,0.083,0.014,2.918,1.019,3,1C876.155,852.875,893.868,856.31,905.767,836.41ZM954,863c38.8-6.788,67.02,1.3,78-7,22.13-39.239,31.24-95.626,34.9-163.225s3.5-136.56,24.23-200.955,67.25-125.106,132.97-141.99l-1.54-1.824c-102.91,13.168-196.93,81.409-238.16,176.181-33.468,76.924-33.189,163.649-46.376,246.532C934.163,794.988,925.606,825.916,913,847m109.49-281.185a178.669,178.669,0,0,1,21.88-74.511,0.2,0.2,0,0,1,.27-0.077l8.76,4.859a0.191,0.191,0,0,1,.07.258,168.257,168.257,0,0,0-20.62,70.183,0.18,0.18,0,0,1-.2.176l-9.98-.676A0.194,0.194,0,0,1,1022.49,565.815Zm-21.7,172.636a688.855,688.855,0,0,0,13.47-84.638,0.2,0.2,0,0,1,.21-0.172l9.96,0.983a0.2,0.2,0,0,1,.17.214,697.751,697.751,0,0,1-13.67,85.908,0.2,0.2,0,0,1-.24.147l-9.76-2.211A0.188,0.188,0,0,1,1000.79,738.451ZM937.339,863.643c23.338-11.422,30.8-1.92,39.682-26.278a0.189,0.189,0,0,1,.243-0.112l9.408,3.421a0.2,0.2,0,0,1,.12.257C977,867.774,987.723,856.414,962,869c-0.1.048-3.952-2.9-4-3L937.253,863.9A0.187,0.187,0,0,1,937.339,863.643ZM814.5,774.133c54.69-39.948,89.187-101.241,118.366-162.269s55.6-124.585,99.384-176.179c73.7-72.288,150.23-80.783,177.12-80.869l-0.73-2.267c-100.36-26.845-213.51.524-287.873,72.4-60.36,58.337-93.194,138.513-137.038,210.038-12.837,20.944-27.087,41.663-46.811,56.351-21.818,16.247-46.277,19.189-71.445,15.009l0.9,8.551c0,0.01,0,.02,0,0.03C673.367,742.77,697.408,762.188,712,787c0.007,0.012-4.009,1.99-4,2l3,5c0.028,0.033,1.958.99,2,1C751.541,803.439,780.684,798.835,814.5,774.133ZM940.059,477.959a178.768,178.768,0,0,1,48.71-60.5,0.2,0.2,0,0,1,.28.032l6.254,7.8a0.189,0.189,0,0,1-.029.267,168.387,168.387,0,0,0-45.883,56.983,0.189,0.189,0,0,1-.255.086l-8.986-4.406A0.2,0.2,0,0,1,940.059,477.959ZM854.081,629.124a687.211,687.211,0,0,0,44.78-73.036,0.192,0.192,0,0,1,.26-0.079l8.848,4.679a0.2,0.2,0,0,1,.082.266,697.033,697.033,0,0,1-45.45,74.132,0.2,0.2,0,0,1-.274.047l-8.2-5.741A0.192,0.192,0,0,1,854.081,629.124ZM725.891,744.191a102.705,102.705,0,0,0,68.429-32.75,0.188,0.188,0,0,1,.267-0.012L802,718.154a0.2,0.2,0,0,1,.014.282A113.159,113.159,0,0,1,726.6,754.52a0.2,0.2,0,0,1-.214-0.187l-0.674-9.942A0.186,0.186,0,0,1,725.891,744.191Zm90.64,75A102.592,102.592,0,0,0,882.5,781.781a0.189,0.189,0,0,1,.266-0.03l7.858,6.2a0.2,0.2,0,0,1,.034.281,113.042,113.042,0,0,1-72.7,41.218,0.2,0.2,0,0,1-.226-0.172l-1.363-9.875A0.186,0.186,0,0,1,816.531,819.189Z"/>
  <path id="形状_1_拷贝_8-2" data-name="形状 1 拷贝 8" class="cls-2" d="M1022.49,565.815a178.669,178.669,0,0,1,21.88-74.511,0.2,0.2,0,0,1,.27-0.077l8.76,4.859a0.191,0.191,0,0,1,.07.258,168.257,168.257,0,0,0-20.62,70.183,0.18,0.18,0,0,1-.2.176l-9.98-.676A0.194,0.194,0,0,1,1022.49,565.815Z"/>
  <path id="形状_1_拷贝_8-3" data-name="形状 1 拷贝 8" class="cls-2" d="M1000.79,738.451a688.855,688.855,0,0,0,13.47-84.638,0.2,0.2,0,0,1,.21-0.172l9.96,0.983a0.2,0.2,0,0,1,.17.214,697.751,697.751,0,0,1-13.67,85.908,0.2,0.2,0,0,1-.24.147l-9.76-2.211A0.188,0.188,0,0,1,1000.79,738.451Z"/>
  <path id="形状_1_拷贝_8-4" data-name="形状 1 拷贝 8" class="cls-2" d="M926.339,893.643a102.205,102.205,0,0,0,50.682-56.278,0.189,0.189,0,0,1,.243-0.112l9.408,3.421a0.2,0.2,0,0,1,.12.257,112.617,112.617,0,0,1-55.855,62.012,0.2,0.2,0,0,1-.269-0.092l-4.415-8.956A0.187,0.187,0,0,1,926.339,893.643Z"/>
  <path id="形状_1_拷贝_8-5" data-name="形状 1 拷贝 8" class="cls-2" d="M793.531,823.189A102.592,102.592,0,0,0,859.5,785.781a0.189,0.189,0,0,1,.266-0.03l7.858,6.2a0.2,0.2,0,0,1,.034.281,113.042,113.042,0,0,1-72.7,41.218,0.2,0.2,0,0,1-.226-0.172l-1.363-9.875A0.186,0.186,0,0,1,793.531,823.189Z"/>
  <path id="形状_1_拷贝_8-6" data-name="形状 1 拷贝 8" class="cls-2" d="M725.891,744.191a102.705,102.705,0,0,0,68.429-32.75,0.188,0.188,0,0,1,.267-0.012L802,718.154a0.2,0.2,0,0,1,.014.282A113.159,113.159,0,0,1,726.6,754.52a0.2,0.2,0,0,1-.214-0.187l-0.674-9.942A0.186,0.186,0,0,1,725.891,744.191Z"/>
  <path id="形状_1_拷贝_8-7" data-name="形状 1 拷贝 8" class="cls-2" d="M854.081,629.124a687.211,687.211,0,0,0,44.78-73.036,0.192,0.192,0,0,1,.26-0.079l8.848,4.679a0.2,0.2,0,0,1,.082.266,697.033,697.033,0,0,1-45.45,74.132,0.2,0.2,0,0,1-.274.047l-8.2-5.741A0.192,0.192,0,0,1,854.081,629.124Z"/>
  <path id="形状_1_拷贝_8-8" data-name="形状 1 拷贝 8" class="cls-2" d="M995.274,425.562a168.387,168.387,0,0,0-45.883,56.983,0.189,0.189,0,0,1-.255.086m0,0-8.986-4.406a0.2,0.2,0,0,1-.091-0.266,178.768,178.768,0,0,1,48.71-60.5,0.2,0.2,0,0,1,.28.032l6.254,7.8a0.189,0.189,0,0,1-.029.267"/>
  <circle id="椭圆_1_拷贝_3" data-name="椭圆 1 拷贝 3" class="cls-3" cx="932" cy="527" r="350"/>
  <text id="highway" class="cls-4" x="795.942" y="321.197">highway</text>
</svg>
