<?xml version="1.0" encoding="UTF-8"?>
<svg width="40px" height="41px" viewBox="0 0 40 41" version="1.1" xmlns="http://www.w3.org/2000/svg" xmlns:xlink="http://www.w3.org/1999/xlink">
    <title>bUSD_icon</title>
    <g id="页面-2" stroke="none" stroke-width="1" fill="none" fill-rule="evenodd">
        <g id="Wallet" transform="translate(-897.000000, -249.000000)">
            <g id="bUSD_icon" transform="translate(897.000000, 249.000000)">
                <g id="编组-2">
                    <circle id="椭圆形" fill="#E6007A" fill-rule="nonzero" cx="20" cy="20" r="20"></circle>
                    <g id="编组-48" transform="translate(13.000000, 11.000000)" fill="#FFFFFF">
                        <path d="M4.80796085,3.11438298 C4.80796085,3.11438298 9.31293957,8.73942128 9.39673532,8.81846809 C9.48053106,8.8974383 10.4863098,10.2917106 10.4863098,10.2917106 C10.4863098,10.2917106 11.1149311,11.537617 11.1777396,11.5795149 C11.2406247,11.6213362 11.5339864,12.6494043 11.5967949,12.7535745 C11.65968,12.8576681 11.8901566,14.1358213 11.8901566,14.1358213 L11.4920885,15.8120426 C11.4920885,15.8120426 10.3875013,16.736783 10.0882417,16.9435149 C9.78890553,17.1503234 9.29195234,17.4673532 9.29195234,17.4673532 C9.29195234,17.4673532 10.7796715,17.4254553 10.8634672,17.4673532 C10.947263,17.5093277 12.8330502,16.6921277 12.8749481,16.6292426 C12.9169226,16.5663574 13.9645226,14.7669702 13.9645226,14.7669702 L14.4254757,13.2138383 L14.2369736,11.1813702 L13.1473226,9.38757447 L7.90901617,2.92580426 L4.80796085,2.82102128 L4.80796085,3.11438298 Z" id="Fill-1"></path>
                        <polygon id="Fill-3" points="0.351045957 0.405628085 0.351045957 8.31107489 5.63377787 14.7669472 8.32558213 14.7669472 6.65441617 12.5213132 2.70613532 7.69777277 2.70613532 0.405628085"></polygon>
                        <path d="M0.788706383,17.1314043 C2.55569362,17.135234 9.66362553,17.1503234 9.78885957,17.1503234 C12.1452511,17.1503234 14.0622128,15.2333617 14.0622128,12.8769702 C14.0622128,11.9484766 13.7695404,11.0655574 13.2157532,10.3238043 C12.6169277,9.52161702 12.6169277,8.4438383 13.2157532,7.64172766 C13.7695404,6.89997447 14.0622128,6.01705532 14.0622128,5.08848511 C14.0622128,2.81688511 12.2892511,0.944425532 10.0242383,0.821642553 L0.788706383,0.791234043 L0.788706383,17.1314043 Z M9.78885957,17.9390298 C9.64570213,17.9390298 0.771165957,17.9201106 0.39347234,17.9192681 L-6.21724894e-15,17.9184255 L-6.21724894e-15,6.57252031e-14 L10.0557957,0.0334723404 C12.7446894,0.173412766 14.8509191,2.39384681 14.8509191,5.08848511 C14.8509191,6.1884766 14.5040936,7.23446809 13.8477447,8.11355745 C13.459634,8.63348936 13.459634,9.33204255 13.8477447,9.85197447 C14.5040936,10.7309872 14.8509191,11.7771319 14.8509191,12.8769702 C14.8509191,15.6681191 12.5800851,17.9390298 9.78885957,17.9390298 L9.78885957,17.9390298 Z" id="Fill-5"></path>
                        <path d="M9.08232511,15.1280962 L5.41101447,15.1280962 L0.0674655319,8.54109191 L0.680001702,8.04421532 L5.78679319,14.3393898 L8.29361872,14.3393898 L8.29361872,11.5278664 L4.28689532,6.86425787 L4.21183149,2.50879404 L8.15268255,2.50879404 L8.27109957,2.65447915 C8.46366128,2.89154298 12.9963677,8.47391745 13.7575762,9.73161957 L13.0828443,10.1400281 C12.4156187,9.03758553 8.50969532,4.20209617 7.77705702,3.29750043 L5.01424851,3.29750043 L5.07062298,6.56622383 L9.08232511,11.235577 L9.08232511,15.1280962 Z" id="Fill-7"></path>
                        <path d="M8.13437617,17.9321438 L8.00102298,17.1548502 C9.79864851,16.8464757 10.9256783,16.1860672 11.3508613,15.1920077 C11.7092528,14.353897 11.7634826,12.8007651 9.9860017,10.1613523 L9.93728681,10.0888162 C9.53048681,9.47857787 6.0781634,5.28633957 4.30949106,3.15498638 L4.91643574,2.65136936 C5.12638468,2.90428851 10.0623677,8.85455234 10.5934826,9.65130128 L10.640206,9.72077362 C10.8645549,10.0539651 11.4604698,10.9388757 11.8777634,11.9906885 C12.420674,13.3589183 12.4873889,14.5403311 12.0759932,15.5020672 C11.5389038,16.7580843 10.2127251,17.5756672 8.13437617,17.9321438" id="Fill-9"></path>
                        <polygon id="Fill-11" points="8.38829106 14.990017 2.27978043 7.84669787 2.27978043 0.405651064 3.06848681 0.405651064 3.06848681 7.55548085 8.98772936 14.4774383"></polygon>
                    </g>
                </g>
                <g id="编组-5" transform="translate(25.000000, 25.000000)">
                    <path d="M8.86528475,1.11982491 L11.9006677,2.969664 C12.8537913,3.55052162 13.4353829,4.58604137 13.4353829,5.70221349 L13.4353829,9.70770307 C13.4353829,10.8238752 12.8537913,11.8593949 11.9006677,12.4402526 L8.86528475,14.2900916 C7.84257144,14.913359 6.55742856,14.913359 5.53471525,14.2900916 L2.49933234,12.4402526 C1.54620874,11.8593949 0.964617093,10.8238752 0.964617093,9.70770307 L0.964617093,5.70221349 C0.964617093,4.58604137 1.54620874,3.55052162 2.49933234,2.969664 L5.53471525,1.11982491 C6.55742856,0.496557559 7.84257144,0.496557559 8.86528475,1.11982491 Z" id="多边形备份" fill="#4647C6"></path>
                    <path d="M5.28179307,0.509103466 C6.45751716,-0.169701155 7.90606898,-0.169701155 9.08179307,0.509103466 L9.08179307,0.509103466 L12.4635861,2.4615826 C13.6393102,3.14038723 14.3635861,4.3948699 14.3635861,5.75247914 L14.3635861,5.75247914 L14.3635861,9.65743742 C14.3635861,11.0150467 13.6393102,12.2695293 12.4635861,12.948334 L12.4635861,12.948334 L9.08179307,14.9008131 C7.90606898,15.5796177 6.45751716,15.5796177 5.28179307,14.9008131 L5.28179307,14.9008131 L1.9,12.948334 C0.724275908,12.2695293 -1.42108547e-15,11.0150467 -1.42108547e-15,9.65743742 L-1.42108547e-15,9.65743742 L-1.42108547e-15,5.75247914 C-1.42108547e-15,4.3948699 0.724275908,3.14038723 1.9,2.4615826 L1.9,2.4615826 Z M8.48179307,1.54833395 C7.67735027,1.08388868 6.68623587,1.08388868 5.88179307,1.54833395 L5.88179307,1.54833395 L2.5,3.50081309 C1.6955572,3.96525836 1.2,4.8235886 1.2,5.75247914 L1.2,5.75247914 L1.2,9.65743742 C1.2,10.5863279 1.6955572,11.4446582 2.5,11.9091035 L2.5,11.9091035 L5.88179307,13.8615826 C6.68623587,14.3260279 7.67735027,14.3260279 8.48179307,13.8615826 L8.48179307,13.8615826 L11.8635861,11.9091035 C12.6680289,11.4446582 13.1635861,10.5863279 13.1635861,9.65743742 L13.1635861,9.65743742 L13.1635861,5.75247914 C13.1635861,4.8235886 12.6680289,3.96525836 11.8635861,3.50081309 L11.8635861,3.50081309 Z M5.15993934,3.30495828 C5.60117088,3.30495828 5.96105821,3.65323425 5.97969408,4.08987895 L5.98045216,4.1254711 L5.98001452,6.3356175 C6.44140585,6.0776401 6.97324457,5.9305993 7.53942652,5.9305993 C9.30673771,5.9305993 10.7394265,7.3632881 10.7394265,9.1305993 C10.7394265,10.8979105 9.30673771,12.3305993 7.53942652,12.3305993 C5.88582788,12.3305993 4.52517632,11.0763438 4.35692763,9.46728859 C4.34770425,9.42518696 4.34211452,9.38091581 4.34018459,9.33569694 L4.33942652,4.1254711 C4.33942652,3.67231438 4.70678262,3.30495828 5.15993934,3.30495828 Z M7.53942652,7.57162494 C6.67842875,7.57162494 5.98045216,8.26960154 5.98045216,9.1305993 C5.98045216,9.99159707 6.67842875,10.6895737 7.53942652,10.6895737 C8.40042428,10.6895737 9.09840087,9.99159707 9.09840087,9.1305993 C9.09840087,8.26960154 8.40042428,7.57162494 7.53942652,7.57162494 Z" id="形状结合" fill="#FFFFFF" fill-rule="nonzero"></path>
                </g>
            </g>
        </g>
    </g>
</svg>